<?xml version="1.0" encoding="UTF-8"?>
<svg version="1.1" xmlns="http://www.w3.org/2000/svg" width="269" height="199">
<path d="M0 0 C0.99 0.33 1.98 0.66 3 1 C3 1.99 3 2.98 3 4 C3.87591797 4.38091797 3.87591797 4.38091797 4.76953125 4.76953125 C9.09228065 7.15423538 13.13811099 11.32914627 14.671875 16.08203125 C14.9375 18 14.9375 18 15 21 C15.556875 20.79503906 16.11375 20.59007813 16.6875 20.37890625 C21.82962014 18.56352938 26.55232653 17.38911953 32 17 C33 18 33 18 33.09765625 21.16015625 C33.08605469 22.44792969 33.07445312 23.73570313 33.0625 25.0625 C33.05347656 26.35285156 33.04445313 27.64320312 33.03515625 28.97265625 C33.02355469 29.97167969 33.01195312 30.97070312 33 32 C34.051875 31.87431641 34.051875 31.87431641 35.125 31.74609375 C40.99959237 31.11553288 46.1738496 31.01065371 52 32 C52.875 34.0625 52.875 34.0625 53 37 C51.74860946 38.86092394 50.29794836 40.39833461 48.76171875 42.03125 C45.75487482 45.39144809 43.43448089 49.21628874 41 53 C40.34 53.99 39.68 54.98 39 56 C39.58007812 56.23074219 40.16015625 56.46148437 40.7578125 56.69921875 C45.9546106 58.86883908 49.86151398 61.17985906 54 65 C53.9765625 66.828125 53.9765625 66.828125 53 69 C50.39897708 70.17385833 48.10132917 71.00025209 45.375 71.75 C44.23550903 72.07411865 44.23550903 72.07411865 43.07299805 72.40478516 C33.69193719 74.87404954 24.53661439 74.76550373 15 73 C14.505 73.7425 14.01 74.485 13.5 75.25 C10.40124842 78.65862674 7.17233866 80.18726063 3 82 C2.443125 81.2575 1.88625 80.515 1.3125 79.75 C-0.89893307 76.92284425 -0.89893307 76.92284425 -3.75 74.875 C-4.4925 74.25625 -5.235 73.6375 -6 73 C-6 72.01 -6 71.02 -6 70 C-6.57105469 70.28875 -7.14210937 70.5775 -7.73046875 70.875 C-21.87849995 77.35295387 -34.15543035 72.91211764 -48 68 C-46.90656251 62.9820643 -44.20988339 60.81210286 -40 58 C-37.63973785 57.03215556 -35.51541083 56.51334915 -33 56 C-33.36351563 55.52691406 -33.72703125 55.05382812 -34.1015625 54.56640625 C-37.47934865 50.12331832 -40.62199768 45.60047749 -43.60546875 40.8828125 C-45.03274612 38.73371591 -45.03274612 38.73371591 -48 37 C-48 35.68 -48 34.36 -48 33 C-44.46949017 30.81073778 -41.60513846 30.760715 -37.5 30.8125 C-36.3759375 30.81894531 -35.251875 30.82539062 -34.09375 30.83203125 C-31.54436746 30.9704447 -29.4262818 31.25665386 -27 32 C-27.12568359 30.86111328 -27.12568359 30.86111328 -27.25390625 29.69921875 C-27.35574219 28.70535156 -27.45757812 27.71148437 -27.5625 26.6875 C-27.66691406 25.70136719 -27.77132812 24.71523437 -27.87890625 23.69921875 C-28 21 -28 21 -27 18 C-21.45452249 18.39610554 -17.59638764 19.40449305 -12.76171875 22.16015625 C-10.87393953 23.215161 -10.87393953 23.215161 -8 23 C-7.79375 22.071875 -7.5875 21.14375 -7.375 20.1875 C-6 17 -6 17 -2.875 15.125 C-1.92625 14.75375 -0.9775 14.3825 0 14 C-0.515625 13.29875 -1.03125 12.5975 -1.5625 11.875 C-3.33123895 8.33752209 -3.06047845 6.75246222 -2 3 C-1.34 2.01 -0.68 1.02 0 0 Z M9 31 C8.67 31.66 8.34 32.32 8 33 C7.01 32.9175 6.02 32.835 5 32.75 C0.48472674 32.75 -3.38925919 34.31062063 -7 37 C-9.31717459 40.70447976 -9.44944041 43.65540936 -9 48 C-6.4930456 52.91748748 -3.61998938 55.27000628 1 58 C0.62403791 55.21788056 0.32681541 53.4120716 -1.4375 51.1875 C-2.93829743 49.79830558 -2.93829743 49.79830558 -5 50 C-5.19622241 45.78121808 -4.80230168 42.82989106 -3 39 C1.084979 38.45533613 4.8725485 38 9 38 C10.18725323 41.71016634 10.34572261 45.12790678 10 49 C8.0625 51.1875 8.0625 51.1875 6 53 C5.2127322 55.1381966 5.2127322 55.1381966 5 57 C9.5485649 55.07949482 12.09758344 53.65035158 14 49 C14.91772134 42.44484757 12.41862433 36.97097882 10 31 C9.67 31 9.34 31 9 31 Z M1 67 C0.13641377 68.78141747 0.13641377 68.78141747 0 71 C1.58333333 73.41666667 1.58333333 73.41666667 4 75 C6.21858253 74.86358623 6.21858253 74.86358623 8 74 C7.72965366 71.56282742 7.72965366 71.56282742 7 69 C4.18490007 66.7226499 4.18490007 66.7226499 1 67 Z " fill="#E6D8B5" transform="translate(132,43)"/>
<path d="M0 0 C0.33 0 0.66 0 1 0 C1 4.62 1 9.24 1 14 C2.65 14 4.3 14 6 14 C5.01 14.33 4.02 14.66 3 15 C3.99 17.64 4.98 20.28 6 23 C7.32 23 8.64 23 10 23 C10.2784375 22.13375 10.2784375 22.13375 10.5625 21.25 C12.74569692 17.83282221 15.36059284 16.75471417 19 15 C19.66 15.33 20.32 15.66 21 16 C20.63648438 16.47308594 20.27296875 16.94617188 19.8984375 17.43359375 C17.07509486 21.14737523 14.32386747 24.90077583 11.6875 28.75 C10.95080078 29.82507813 10.95080078 29.82507813 10.19921875 30.921875 C9.01801066 32.96878934 8.44210444 34.69065444 8 37 C8.58007812 37.23074219 9.16015625 37.46148437 9.7578125 37.69921875 C14.9546106 39.86883908 18.86151398 42.17985906 23 46 C22.9765625 47.828125 22.9765625 47.828125 22 50 C19.39897708 51.17385833 17.10132917 52.00025209 14.375 52.75 C13.23550903 53.07411865 13.23550903 53.07411865 12.07299805 53.40478516 C2.69193719 55.87404954 -6.46338561 55.76550373 -16 54 C-16.598125 54.78375 -17.19625 55.5675 -17.8125 56.375 C-20 59 -20 59 -23 61 C-24.32 61 -25.64 61 -27 61 C-26.34 59.68 -25.68 58.36 -25 57 C-24.34 57 -23.68 57 -23 57 C-23.99 53.535 -23.99 53.535 -25 50 C-25.9590625 49.8453125 -25.9590625 49.8453125 -26.9375 49.6875 C-27.9584375 49.3471875 -27.9584375 49.3471875 -29 49 C-29.495 47.515 -29.495 47.515 -30 46 C-31.28776153 48.77825456 -31.28776153 48.77825456 -32 52 C-30.75651531 54.38305196 -30.75651531 54.38305196 -29 56 C-29.33 56.66 -29.66 57.32 -30 58 C-31.98 56.35 -33.96 54.7 -36 53 C-35.42676569 49.13066838 -33.61046448 46.84777943 -31 44 C-30.34 44 -29.68 44 -29 44 C-28.34 41.03 -27.68 38.06 -27 35 C-26.34 35.33 -25.68 35.66 -25 36 C-23.515 35.505 -23.515 35.505 -22 35 C-21.34 35 -20.68 35 -20 35 C-17.99784301 30.8705512 -17.66782246 27.56744115 -18 23 C-18.33257812 22.37738281 -18.66515625 21.75476563 -19.0078125 21.11328125 C-20.23063303 18.5087698 -20.20030515 16.61159585 -20.125 13.75 C-20.10695312 12.85796875 -20.08890625 11.9659375 -20.0703125 11.046875 C-20.03550781 10.03367187 -20.03550781 10.03367187 -20 9 C-19.360625 8.87625 -18.72125 8.7525 -18.0625 8.625 C-17.381875 8.41875 -16.70125 8.2125 -16 8 C-15.67 7.34 -15.34 6.68 -15 6 C-14 4 -14 4 -11.875 3.25 C-11.25625 3.1675 -10.6375 3.085 -10 3 C-10.33 3.66 -10.66 4.32 -11 5 C-9.02 5.99 -7.04 6.98 -5 8 C-5 10.97 -5 13.94 -5 17 C-4.34 17 -3.68 17 -3 17 C-3.05220703 15.91332031 -3.05220703 15.91332031 -3.10546875 14.8046875 C-3.26631949 9.06001832 -3.23466184 4.98677034 0 0 Z " fill="#E5DCC1" transform="translate(163,62)"/>
<path d="M0 0 C0.66 0 1.32 0 2 0 C5.03910346 5.946072 5.65226572 11.36906706 6 18 C6.33 14.7 6.66 11.4 7 8 C15.66666667 5.83333333 15.66666667 5.83333333 18 7 C16.91367588 9.25621163 15.76654035 11.37353544 14.4375 13.5 C11.64206619 18.36162401 11.34894051 23.49389685 12 29 C13.45546878 33.48915673 15.68695659 36.08044034 19.75 38.4375 C20.8225 38.953125 21.895 39.46875 23 40 C22.01 40.495 22.01 40.495 21 41 C21 41.66 21 42.32 21 43 C22.98 42.505 22.98 42.505 25 42 C25.33 42.66 25.66 43.32 26 44 C22.2075342 48.26652402 18.32766024 50.89480975 13 53 C12.34 53 11.68 53 11 53 C11 53.66 11 54.32 11 55 C-0.64605872 56.12906135 -10.15334046 52.8484452 -21 49 C-19.90656251 43.9820643 -17.20988339 41.81210286 -13 39 C-10.63973785 38.03215556 -8.51541083 37.51334915 -6 37 C-6.36351563 36.52691406 -6.72703125 36.05382812 -7.1015625 35.56640625 C-10.47934865 31.12331832 -13.62199768 26.60047749 -16.60546875 21.8828125 C-18.03274612 19.73371591 -18.03274612 19.73371591 -21 18 C-21 16.68 -21 15.36 -21 14 C-17.46949017 11.81073778 -14.60513846 11.760715 -10.5 11.8125 C-9.3759375 11.81894531 -8.251875 11.82539062 -7.09375 11.83203125 C-4.54436746 11.9704447 -2.4262818 12.25665386 0 13 C-0.12568359 11.84371094 -0.12568359 11.84371094 -0.25390625 10.6640625 C-0.35574219 9.66117188 -0.45757812 8.65828125 -0.5625 7.625 C-0.66691406 6.62726563 -0.77132812 5.62953125 -0.87890625 4.6015625 C-1 2 -1 2 0 0 Z " fill="#D5CBAD" transform="translate(105,62)"/>
<path d="M0 0 C3.1875 2.3125 3.1875 2.3125 5 5 C5 8 5 8 3.5 9.5625 C3.005 10.036875 2.51 10.51125 2 11 C1.78560264 13.08486562 1.78560264 13.08486562 3.3125 14.5625 C5.05070854 16.22493787 5.05070854 16.22493787 8 17 C8.26554687 16.30519531 8.53109375 15.61039063 8.8046875 14.89453125 C10.10603076 11.74323924 11.58703383 8.72999829 13.125 5.6875 C13.66382813 4.61886719 14.20265625 3.55023438 14.7578125 2.44921875 C15.16773438 1.64097656 15.57765625 0.83273438 16 0 C18.23046875 0.0078125 18.23046875 0.0078125 21 1 C22.84063779 3.42893067 24.04676314 6.11295562 25.3125 8.875 C25.67150391 9.60847656 26.03050781 10.34195313 26.40039062 11.09765625 C29 16.53455357 29 16.53455357 29 20 C26.6875 20.6875 26.6875 20.6875 24 21 C22.1875 19.6875 22.1875 19.6875 21 18 C21 17.34 21 16.68 21 16 C18.36 16 15.72 16 13 16 C12.67 17.32 12.34 18.64 12 20 C11.071875 19.979375 10.14375 19.95875 9.1875 19.9375 C5.97713989 19.84230396 5.97713989 19.84230396 3 21 C-0.97305199 19.9074107 -2.80587773 18.46440358 -5 15 C-5.4021875 16.2065625 -5.4021875 16.2065625 -5.8125 17.4375 C-6.204375 18.283125 -6.59625 19.12875 -7 20 C-7.99 20.33 -8.98 20.66 -10 21 C-11.86562642 19.42702086 -12.90238443 18.54489783 -13.34057617 16.09887695 C-13.32486572 15.40238037 -13.30915527 14.70588379 -13.29296875 13.98828125 C-13.28330078 13.23095703 -13.27363281 12.47363281 -13.26367188 11.69335938 C-13.23853516 10.90767578 -13.21339844 10.12199219 -13.1875 9.3125 C-13.17396484 8.51521484 -13.16042969 7.71792969 -13.14648438 6.89648438 C-13.11117089 4.93070033 -13.05736447 2.96526418 -13 1 C-9.04314075 -0.97842963 -4.30215682 -0.56411566 0 0 Z M-6 4 C-6 5.32 -6 6.64 -6 8 C-5.01 8 -4.02 8 -3 8 C-3.33 6.68 -3.66 5.36 -4 4 C-4.66 4 -5.32 4 -6 4 Z " fill="#F6E9BF" transform="translate(164,129)"/>
<path d="M0 0 C1.32 0.33 2.64 0.66 4 1 C3.01 1 2.02 1 1 1 C1.99 3.64 2.98 6.28 4 9 C5.32 9 6.64 9 8 9 C8.185625 8.4225 8.37125 7.845 8.5625 7.25 C10.74569692 3.83282221 13.36059284 2.75471417 17 1 C17.66 1.33 18.32 1.66 19 2 C18.63648438 2.47308594 18.27296875 2.94617188 17.8984375 3.43359375 C15.0865772 7.13227153 12.33394535 10.86841664 9.6875 14.6875 C9.19636719 15.39261719 8.70523438 16.09773438 8.19921875 16.82421875 C6.8791636 19.21923737 6.40072678 21.30805891 6 24 C5.34 24 4.68 24 4 24 C3.67 25.32 3.34 26.64 3 28 C1.02 28.33 -0.96 28.66 -3 29 C-2.67 29.99 -2.34 30.98 -2 32 C-2.33 32.66 -2.66 33.32 -3 34 C-1.96552734 33.89171875 -1.96552734 33.89171875 -0.91015625 33.78125 C5.09588659 33.18806058 10.9657 32.90107705 17 33 C15.39695722 36.20608556 12.22387633 36.87314977 9 38 C-0.52419219 40.77717948 -9.74810401 41.00566741 -19 37 C-20.82421875 34.890625 -20.82421875 34.890625 -22 33 C-20.68 33 -19.36 33 -18 33 C-19.32 32.34 -20.64 31.68 -22 31 C-22 30.67 -22 30.34 -22 30 C-18.04 29.67 -14.08 29.34 -10 29 C-12.31 28.67 -14.62 28.34 -17 28 C-14.49751135 26.33167423 -12.58850813 25.37618326 -9.8125 24.375 C-8.73935547 23.98441406 -8.73935547 23.98441406 -7.64453125 23.5859375 C-7.10183594 23.39257812 -6.55914062 23.19921875 -6 23 C-6.66 22.67 -7.32 22.34 -8 22 C-6.76302083 20.56770833 -5.52604167 19.13541667 -4.2890625 17.703125 C-1.33398503 13.79884082 -0.69332308 10.6309539 -0.375 5.75 C-0.30023438 4.67234375 -0.22546875 3.5946875 -0.1484375 2.484375 C-0.09945312 1.66453125 -0.05046875 0.8446875 0 0 Z " fill="#ECDA9F" transform="translate(165,76)"/>
<path d="M0 0 C3.27047684 3.09369431 6.01731775 5.9302838 8 10 C8 11.32 8 12.64 8 14 C8.556875 13.79503906 9.11375 13.59007812 9.6875 13.37890625 C14.82962014 11.56352938 19.55232653 10.38911953 25 10 C26 11 26 11 26.09765625 14.16015625 C26.08605469 15.44792969 26.07445312 16.73570313 26.0625 18.0625 C26.05347656 19.35285156 26.04445312 20.64320312 26.03515625 21.97265625 C26.02355469 22.97167969 26.01195312 23.97070312 26 25 C27.051875 24.87431641 27.051875 24.87431641 28.125 24.74609375 C33.99959237 24.11553288 39.1738496 24.01065371 45 25 C45.875 27.0625 45.875 27.0625 46 30 C44.74902709 31.8603029 43.30100344 33.39445091 41.76171875 35.0234375 C39.24385908 37.84835323 37.31105955 40.98514749 35.296875 44.1796875 C34 46 34 46 32 47 C33.7453499 43.28998923 35.89572062 39.84804888 38.0625 36.375 C40.66232273 32.26237409 40.66232273 32.26237409 43 28 C38.18966896 30.54664585 34.67557852 32.99027798 31 37 C28.20448001 34.93374609 27.98932074 33.93117808 27.4375 30.375 C27.293125 29.26125 27.14875 28.1475 27 27 C26.34 26.67 25.68 26.34 25 26 C24.5859375 23.27734375 24.5859375 23.27734375 24.375 19.9375 C24.30023438 18.83277344 24.22546875 17.72804688 24.1484375 16.58984375 C24.09945312 15.73519531 24.05046875 14.88054687 24 14 C22.08697693 17.26613695 21.64325339 19.99445248 21.375 23.75 C21.30023438 24.73484375 21.22546875 25.7196875 21.1484375 26.734375 C21.09945312 27.48203125 21.05046875 28.2296875 21 29 C20.34 29 19.68 29 19 29 C18.505 24.545 18.505 24.545 18 20 C16.02 19.34 14.04 18.68 12 18 C12 17.34 12 16.68 12 16 C11.401875 16.639375 10.80375 17.27875 10.1875 17.9375 C8 20 8 20 5 21 C4.67 22.65 4.34 24.3 4 26 C2.824375 26.12375 1.64875 26.2475 0.4375 26.375 C-3.54120426 26.86435935 -7.17766559 27.8055205 -11 29 C-7.48284377 25.21292247 -3.71751025 22.96810292 0.7578125 20.46484375 C3.25547276 19.0427433 3.25547276 19.0427433 5 16 C5.16713569 13.37468476 5.16713569 13.37468476 5 11 C3.05000871 11.19471111 3.05000871 11.19471111 1 12 C-0.16666667 13.91666667 -0.16666667 13.91666667 -1 16 C-1.66 16.66 -2.32 17.32 -3 18 C-3.77085937 17.95359375 -4.54171875 17.9071875 -5.3359375 17.859375 C-9.07858803 18.05693427 -10.12922943 19.52266309 -12.625 22.25 C-17.32500229 27.70857171 -18.94829302 32.96444296 -20 40 C-20.33 40 -20.66 40 -21 40 C-21.45598581 33.61619861 -20.64159484 29.32997062 -17 24 C-15.9493022 22.86473384 -14.86604822 21.75858893 -13.75 20.6875 C-12.8425 19.800625 -11.935 18.91375 -11 18 C-11 17.01 -11 16.02 -11 15 C-8.61172024 11.9483092 -5.28376325 9.9839403 -2 8 C-1.01 8 -0.02 8 1 8 C0.67 5.36 0.34 2.72 0 0 Z " fill="#F6F2E5" transform="translate(139,50)"/>
<path d="M0 0 C2.84557514 3.0827064 2.15388983 6.99886447 2 11 C1.360625 11.268125 0.72125 11.53625 0.0625 11.8125 C-2.33131686 12.88667752 -2.33131686 12.88667752 -3 16 C-3.66 16 -4.32 16 -5 16 C-5.08636719 16.59167969 -5.17273438 17.18335937 -5.26171875 17.79296875 C-6.27070544 23.46736179 -7.60971114 26.05999718 -12 30 C-12.86119134 32.17346568 -12.86119134 32.17346568 -13 34 C-10.525 35.98 -10.525 35.98 -8 38 C-8.556875 37.13375 -9.11375 36.2675 -9.6875 35.375 C-11 32 -11 32 -9.6875 28.625 C-9.130625 27.75875 -8.57375 26.8925 -8 26 C-7 29 -7 29 -7.625 31 C-8.25538635 33.06580855 -8.25538635 33.06580855 -6.8125 34.75 C-4.81814804 36.37848864 -4.81814804 36.37848864 -1 36 C-1 36.66 -1 37.32 -1 38 C-1.99 38.66 -2.98 39.32 -4 40 C-4.72382467 42.05925139 -4.72382467 42.05925139 -5 44 C-6.1055189 43.06409496 -7.20935453 42.12620142 -8.3125 41.1875 C-9.23482422 40.40439453 -9.23482422 40.40439453 -10.17578125 39.60546875 C-10.77777344 39.07566406 -11.37976563 38.54585937 -12 38 C-12.57105469 37.50113281 -13.14210938 37.00226563 -13.73046875 36.48828125 C-15 35 -15 35 -15 32 C-16.36125 32.7734375 -16.36125 32.7734375 -17.75 33.5625 C-21.16419665 35.07262544 -21.68604014 35.08784335 -25 34 C-20.33333333 31.66666667 -15.66666667 29.33333333 -11 27 C-11.33 26.01 -11.66 25.02 -12 24 C-12.99 24 -13.98 24 -15 24 C-15 23.34 -15 22.68 -15 22 C-14.34 22 -13.68 22 -13 22 C-12.67 20.68 -12.34 19.36 -12 18 C-11.01 18.33 -10.02 18.66 -9 19 C-9.33 17.02 -9.66 15.04 -10 13 C-11.32 12.67 -12.64 12.34 -14 12 C-14.97477898 8.27811664 -15.12816587 6.35751532 -13.8125 2.6875 C-12 0 -12 0 -10.3125 -0.9375 C-6.66933099 -1.03596403 -3.59671797 -0.75415054 0 0 Z " fill="#E2D89A" transform="translate(141,81)"/>
<path d="M0 0 C1.4783226 2.95664519 1.06032783 5.74229737 1 9 C2.98 9 4.96 9 7 9 C6.95875 8.05125 6.9175 7.1025 6.875 6.125 C7 3 7 3 9 1 C11.625 0.875 11.625 0.875 14 1 C15.07787679 5.21498087 14.95969909 8.92604962 14.625 13.25 C14.53476563 14.49265625 14.44453125 15.7353125 14.3515625 17.015625 C14 20 14 20 13 21 C11.33382885 21.04063832 9.66611905 21.042721 8 21 C7 15.25 7 15.25 7 13 C5.02 13 3.04 13 1 13 C1.020625 14.134375 1.04125 15.26875 1.0625 16.4375 C1 20 1 20 0 21 C-1.66617115 21.04063832 -3.33388095 21.042721 -5 21 C-5.82351864 14.61773055 -6.12086218 8.43255401 -6 2 C-2.25 0 -2.25 0 0 0 Z " fill="#E4CC8D" transform="translate(100,128)"/>
<path d="M0 0 C6.82118001 0.24361357 11.1311056 2.11896372 16 7 C16.495 8.485 16.495 8.485 17 10 C16 12 16 12 12.7109375 13.2890625 C0.88382617 17.06830356 -9.62117557 18.29167918 -22 16 C-22.598125 16.78375 -23.19625 17.5675 -23.8125 18.375 C-26 21 -26 21 -29 23 C-29.99 22.67 -30.98 22.34 -32 22 C-28.535 19.525 -28.535 19.525 -25 17 C-25.11341534 14.59122743 -25.11341534 14.59122743 -26 12 C-27.64821244 10.96986723 -29.31503702 9.96885372 -31 9 C-31.8125 6.8125 -31.8125 6.8125 -32 5 C-30 5 -30 5 -27.625 7.3125 C-26.75875 8.199375 -25.8925 9.08625 -25 10 C-20.42564958 14.41098076 -14.20817263 14.82192156 -8.125 15.3125 C-1.13025429 15.13027216 5.5798219 12.56807124 12 10 C5.73 10 -0.54 10 -7 10 C-7 8.35 -7 6.7 -7 5 C-5.5459375 4.5978125 -5.5459375 4.5978125 -4.0625 4.1875 C-2.5465625 3.5996875 -2.5465625 3.5996875 -1 3 C-0.67 2.01 -0.34 1.02 0 0 Z " fill="#F2E7C5" transform="translate(169,100)"/>
<path d="M0 0 C0.33 1.32 0.66 2.64 1 4 C-2.32534757 5.10844919 -4.62182575 4.84454356 -8 4 C-8 4.66 -8 5.32 -8 6 C-7.0925 6.268125 -6.185 6.53625 -5.25 6.8125 C-0.16216216 8.67151767 -0.16216216 8.67151767 2 11 C2.5 14 2.5 14 2 17 C-0.92120442 20.27174895 -4.76701568 21.27017512 -9 22 C-12.4375 20.625 -12.4375 20.625 -15 19 C-14.67 17.68 -14.34 16.36 -14 15 C-10.7 15.33 -7.4 15.66 -4 16 C-4 15.34 -4 14.68 -4 14 C-5.60875 13.6596875 -5.60875 13.6596875 -7.25 13.3125 C-11.37218701 11.86973455 -12.64414523 10.58089925 -15 7 C-12.70877769 1.45283019 -12.70877769 1.45283019 -9.75 -0.4375 C-6.27419376 -1.14846037 -3.45894441 -0.67822439 0 0 Z " fill="#FAF0CE" transform="translate(90,129)"/>
<path d="M0 0 C0.66 0.33 1.32 0.66 2 1 C1.67 1.33 1.34 1.66 1 2 C3.97 3.485 3.97 3.485 7 5 C7.25086966 7.68702561 7.47611241 10.37231472 7.6875 13.0625 C7.76033203 13.81466797 7.83316406 14.56683594 7.90820312 15.34179688 C8.30784819 20.77226803 7.50205464 24.15669114 5 29 C4.34 29 3.68 29 3 29 C3.66 25.04 4.32 21.08 5 17 C4.34 17 3.68 17 3 17 C3.061875 17.99 3.12375 18.98 3.1875 20 C3.21491645 24.46888211 1.7208227 27.91304608 0 32 C-1.04360279 28.86919163 -0.92380441 28.02767182 -0.3125 24.9375 C0.63480156 17.58691956 -3.00194541 10.99708189 -7 5 C-6.01 5 -5.02 5 -4 5 C-3.71125 4.360625 -3.4225 3.72125 -3.125 3.0625 C-2 1 -2 1 0 0 Z " fill="#E1DDD3" transform="translate(151,65)"/>
<path d="M0 0 C5.48780488 0.48780488 5.48780488 0.48780488 7.75 2.75 C9.06110446 5.10998803 10.08348683 7.46196353 11 10 C12.80409582 7.7858824 13.98960766 6.02979136 14.9375 3.3125 C16 1 16 1 18.125 0.1875 C18.74375 0.125625 19.3625 0.06375 20 0 C21.16843153 3.47565353 21.02326741 3.94582688 19.453125 7.6015625 C18.73137174 8.94954285 17.99647373 10.29055039 17.25 11.625 C16.8890625 12.305625 16.528125 12.98625 16.15625 13.6875 C14.36189268 16.97715509 13.16373529 18.89084314 10 21 C6.75355018 17.22087327 4.38479747 13.25819489 2.1875 8.8125 C1.86330078 8.18408203 1.53910156 7.55566406 1.20507812 6.90820312 C0.40364486 5.30362046 -0.30613918 3.65394619 -1 2 C-0.67 1.34 -0.34 0.68 0 0 Z " fill="#F2E6B9" transform="translate(128,129)"/>
<path d="M0 0 C0.66 0.33 1.32 0.66 2 1 C2.49086925 8.2403214 2.49086925 8.2403214 0.359375 11.5390625 C-2.23591208 14.24606723 -4.72808203 15.86749563 -8 17.6875 C-9.03125 18.26886719 -10.0625 18.85023437 -11.125 19.44921875 C-12.83472841 20.37144997 -14.56423955 21.26034543 -16.328125 22.07421875 C-18.22255984 22.88158507 -18.22255984 22.88158507 -18.75 25.125 C-18.8325 25.74375 -18.915 26.3625 -19 27 C-19.66 27 -20.32 27 -21 27 C-20.67 30.63 -20.34 34.26 -20 38 C-23.34322925 34.65677075 -23.43127759 34.20524242 -23.4375 29.75 C-23.17740296 21.51359365 -19.52677946 16.89971922 -13.734375 11.29296875 C-11.42770271 9.57335495 -9.80673998 9.84828433 -7 10 C-4.84550034 7.59855425 -4.84550034 7.59855425 -3 5 C-2.01 4.67 -1.02 4.34 0 4 C0 2.68 0 1.36 0 0 Z " fill="#ECDC9B" transform="translate(143,57)"/>
<path d="M0 0 C1.1725131 0.95117134 2.33787015 1.91117009 3.5 2.875 C4.1496875 3.40867187 4.799375 3.94234375 5.46875 4.4921875 C5.9740625 4.98976563 6.479375 5.48734375 7 6 C7 6.66 7 7.32 7 8 C6.34 8 5.68 8 5 8 C4.67 9.32 4.34 10.64 4 12 C6.475 12.495 6.475 12.495 9 13 C9 14.98 9 16.96 9 19 C5.04 18.67 1.08 18.34 -3 18 C2.44577004 23.44577004 13.60824482 23.52575022 21 24 C21 24.33 21 24.66 21 25 C9.35394128 26.12906135 -0.15334046 22.8484452 -11 19 C-9.90656251 13.9820643 -7.20988339 11.81210286 -3 9 C-0.63973785 8.03215556 1.48458917 7.51334915 4 7 C3.01 5.824375 3.01 5.824375 2 4.625 C0 2 0 2 0 0 Z " fill="#EBE6D2" transform="translate(95,92)"/>
<path d="M0 0 C0.33 0 0.66 0 1 0 C1.08796382 3.66651247 1.14071247 7.33274918 1.1875 11 C1.21263672 12.02996094 1.23777344 13.05992188 1.26367188 14.12109375 C1.33315304 21.3934558 0.94950523 27.39015777 -3.83203125 33.2421875 C-7.69131179 36.42400065 -10.94558689 39.0810158 -16 40 C-18.375 39.625 -18.375 39.625 -20 39 C-18.906875 38.505 -17.81375 38.01 -16.6875 37.5 C-12.90621802 35.33817616 -11.74062102 33.20054298 -10.48828125 29.10546875 C-9.78451008 26.07080747 -9.32285153 23.09937465 -9 20 C-8.34 20 -7.68 20 -7 20 C-7.14095064 21.6254308 -7.28792087 23.25034051 -7.4375 24.875 C-7.51871094 25.77992187 -7.59992188 26.68484375 -7.68359375 27.6171875 C-8 30 -8 30 -9 32 C-8.34 32 -7.68 32 -7 32 C-4.94785751 25.67327025 -4.36789315 19.5490562 -3.87695312 12.93945312 C-3.43765305 7.98842256 -2.59500187 4.36271431 0 0 Z " fill="#E7DAA5" transform="translate(163,62)"/>
<path d="M0 0 C0.66 0 1.32 0 2 0 C2 4.29 2 8.58 2 13 C1.01 13 0.02 13 -1 13 C-0.938125 14.258125 -0.87625 15.51625 -0.8125 16.8125 C-0.79173989 20.72231986 -0.79173989 20.72231986 -2.5 23 C-2.995 23.33 -3.49 23.66 -4 24 C-4.721875 23.2575 -5.44375 22.515 -6.1875 21.75 C-10.83014594 16.71474034 -10.83014594 16.71474034 -17 15 C-16.4225 15.515625 -15.845 16.03125 -15.25 16.5625 C-12.49111866 19.55128812 -10.82054147 22.35891705 -9 26 C-9.33 26.66 -9.66 27.32 -10 28 C-10.47050781 27.30132812 -10.94101563 26.60265625 -11.42578125 25.8828125 C-12.04839844 24.97273438 -12.67101562 24.06265625 -13.3125 23.125 C-13.92738281 22.22007813 -14.54226562 21.31515625 -15.17578125 20.3828125 C-16.94913949 17.80028615 -16.94913949 17.80028615 -20 16 C-20 14.68 -20 13.36 -20 12 C-16.46949017 9.81073778 -13.60513846 9.760715 -9.5 9.8125 C-8.3759375 9.81894531 -7.251875 9.82539062 -6.09375 9.83203125 C-3 10 -3 10 1 11 C0.67 7.37 0.34 3.74 0 0 Z " fill="#EDEADF" transform="translate(104,64)"/>
<path d="M0 0 C6.15651906 1.23130381 8.91080486 3.21264959 13 8 C13 8.66 13 9.32 13 10 C13.66 10 14.32 10 15 10 C16.33203125 11.64453125 16.33203125 11.64453125 17.8125 13.8125 C20.2226341 17.16187753 22.28705727 19.09048659 26 21 C26.33 21.66 26.66 22.32 27 23 C29.11327425 23.90725434 29.11327425 23.90725434 31.5625 24.625 C32.38878906 24.88539062 33.21507812 25.14578125 34.06640625 25.4140625 C34.70449219 25.60742188 35.34257813 25.80078125 36 26 C36 26.33 36 26.66 36 27 C29.63027155 27.3538738 23.71246102 27.0861438 18 24 C12.48548729 18.77434272 8.52697002 12.59522316 5.0625 5.8828125 C3.72397628 3.51086974 2.06675227 1.76056675 0 0 Z " fill="#E7D08D" transform="translate(85,77)"/>
<path d="M0 0 C2.23046875 0.0078125 2.23046875 0.0078125 5 1 C6.84063779 3.42893067 8.04676314 6.11295562 9.3125 8.875 C9.67150391 9.60847656 10.03050781 10.34195313 10.40039062 11.09765625 C13 16.53455357 13 16.53455357 13 20 C11.35 20.33 9.7 20.66 8 21 C7.01 19.02 6.02 17.04 5 15 C-0.71337373 14.40763416 -0.71337373 14.40763416 -5.5 17 C-5.995 17.66 -6.49 18.32 -7 19 C-6.28503604 14.38523264 -4.5467397 11.22833765 -2.15625 7.28125 C-0.92264714 4.84738489 -0.4160801 2.68560794 0 0 Z " fill="#EFE1B1" transform="translate(180,129)"/>
<path d="M0 0 C4 4.625 4 4.625 4 8 C4.66 8 5.32 8 6 8 C6.33 7.34 6.66 6.68 7 6 C6.875 7.8125 6.875 7.8125 6 10 C4.6078125 10.5878125 4.6078125 10.5878125 3.1875 11.1875 C-0.89564881 13.5092905 -1.56126304 15.75816036 -3.140625 20.0390625 C-4 22 -4 22 -6 23 C-6.66 22.34 -7.32 21.68 -8 21 C-10.61580479 21.3269756 -12.64078137 21.82039068 -15 23 C-15.66 22.67 -16.32 22.34 -17 22 C-17 25.3 -17 28.6 -17 32 C-17.99 32.495 -17.99 32.495 -19 33 C-19.04898438 32.18015625 -19.09796875 31.3603125 -19.1484375 30.515625 C-19.22320312 29.43796875 -19.29796875 28.3603125 -19.375 27.25 C-19.44460937 26.18265625 -19.51421875 25.1153125 -19.5859375 24.015625 C-19.97824438 21.15844658 -20.66412899 19.49797019 -22 17 C-22 16.01 -22 15.02 -22 14 C-22.66 13.67 -23.32 13.34 -24 13 C-18.45452249 13.39610554 -14.59638764 14.40449305 -9.76171875 17.16015625 C-7.87393953 18.215161 -7.87393953 18.215161 -5 18 C-4.79375 17.071875 -4.5875 16.14375 -4.375 15.1875 C-3 12 -3 12 0.125 10.125 C1.548125 9.568125 1.548125 9.568125 3 9 C2.505 8.2575 2.01 7.515 1.5 6.75 C0 4 0 4 0 0 Z " fill="#F6F4E5" transform="translate(129,48)"/>
<path d="M0 0 C6.93 0.495 6.93 0.495 14 1 C15 6 15 6 13.99609375 7.703125 C13.48175781 8.21359375 12.96742188 8.7240625 12.4375 9.25 C9.235209 12.63890469 6.77994657 16.24148259 4.296875 20.1796875 C3 22 3 22 1 23 C2.7453499 19.28998923 4.89572062 15.84804888 7.0625 12.375 C9.66232273 8.26237409 9.66232273 8.26237409 12 4 C7.18966896 6.54664585 3.67557852 8.99027798 0 13 C-2.7972908 10.93243723 -3.02692273 9.85559629 -3.6875 6.3125 C-3.790625 5.219375 -3.89375 4.12625 -4 3 C-3.01 3 -2.02 3 -1 3 C-0.67 2.01 -0.34 1.02 0 0 Z " fill="#FAF5EA" transform="translate(170,74)"/>
<path d="M0 0 C1.5778125 0.2475 1.5778125 0.2475 3.1875 0.5 C11.39265411 1.51837019 19.67208199 1.30061629 27.85546875 0.22265625 C31.57240097 -0.16325475 35.26664343 -0.05925963 39 0 C37.39695722 3.20608556 34.22387633 3.87314977 31 5 C21.47580781 7.77717948 12.25189599 8.00566741 3 4 C1.17578125 1.890625 1.17578125 1.890625 0 0 Z " fill="#D9B25A" transform="translate(143,109)"/>
<path d="M0 0 C4.58658193 3.60374294 6.80081116 8.39881985 8 14 C7.71314359 24.97537576 7.71314359 24.97537576 4.41015625 28.87890625 C3.94480469 29.24886719 3.47945312 29.61882812 3 30 C9.55944172 28.07740501 13.23974812 25.77068358 17 20 C19.19065873 15.2014142 19.56046586 10.20500951 20 5 C20.33 5 20.66 5 21 5 C21.62073909 13.2765212 21.15276642 18.41121671 16 25 C15.67 25.66 15.34 26.32 15 27 C15.66 27.33 16.32 27.66 17 28 C6.62642369 32.59225513 6.62642369 32.59225513 1 32 C1 32.66 1 33.32 1 34 C0.01 34 -0.98 34 -2 34 C-2.33 34.66 -2.66 35.32 -3 36 C-4 33 -4 33 -3 30 C-3.66 29.67 -4.32 29.34 -5 29 C-2.92446352 28.4465236 -1.15634036 28 1 28 C1.433125 27.13375 1.433125 27.13375 1.875 26.25 C3 24 3 24 4.125 22.25 C5.99177787 17.44971404 5.51844036 12.73362697 3.625 8.0625 C2.34213779 4.92920418 2.34213779 4.92920418 0 4 C0 2.68 0 1.36 0 0 Z " fill="#E5D5A9" transform="translate(144,71)"/>
<path d="M0 0 C5.15656448 0.5349836 10.34908554 0.36326222 15.52734375 0.32470703 C16.68363281 0.32019531 17.83992188 0.31568359 19.03125 0.31103516 C21.863336 0.29933232 24.69531186 0.28293699 27.52734375 0.26220703 C27.52734375 0.92220703 27.52734375 1.58220703 27.52734375 2.26220703 C17.6194403 7.62300504 9.91007278 6.88402205 -0.80859375 4.21142578 C-3.50297171 3.25140548 -5.30075469 2.09957399 -7.47265625 0.26220703 C-4.80019166 -1.07402526 -2.87383433 -0.40470135 0 0 Z " fill="#D8B35E" transform="translate(97.47265625,109.73779296875)"/>
<path d="M0 0 C2.84841385 0.40691626 4.75656429 0.83418147 7.15625 2.46875 C10.85333017 4.45948548 14.17914072 4.78487608 18.3125 5.1875 C19.05306641 5.26935547 19.79363281 5.35121094 20.55664062 5.43554688 C22.36994923 5.63442588 24.18484969 5.81869827 26 6 C23.44465194 9.12320318 20.8683257 10.02126699 17 11 C13.5703125 11.1953125 13.5703125 11.1953125 10.125 11.125 C8.39636719 11.09792969 8.39636719 11.09792969 6.6328125 11.0703125 C5.76398438 11.04710938 4.89515625 11.02390625 4 11 C3 9 3 9 3 5 C1.68 4.67 0.36 4.34 -1 4 C-0.67 2.68 -0.34 1.36 0 0 Z " fill="#B1B2B0" transform="translate(100,100)"/>
<path d="M0 0 C0.66 0 1.32 0 2 0 C2.29948294 3.05472603 2.43073473 5.95409013 2 9 C-0.4375 11.8125 -0.4375 11.8125 -3 14 C-3.86119134 16.17346568 -3.86119134 16.17346568 -4 18 C-1.525 19.98 -1.525 19.98 1 22 C0.443125 21.13375 -0.11375 20.2675 -0.6875 19.375 C-2 16 -2 16 -0.6875 12.625 C-0.130625 11.75875 0.42625 10.8925 1 10 C2 13 2 13 1.375 15 C0.74461365 17.06580855 0.74461365 17.06580855 2.1875 18.75 C4.18185196 20.37848864 4.18185196 20.37848864 8 20 C8 20.66 8 21.32 8 22 C7.01 22.66 6.02 23.32 5 24 C4.27617533 26.05925139 4.27617533 26.05925139 4 28 C2.8944811 27.06409496 1.79064547 26.12620142 0.6875 25.1875 C0.07261719 24.66542969 -0.54226562 24.14335938 -1.17578125 23.60546875 C-1.77777344 23.07566406 -2.37976563 22.54585937 -3 22 C-3.57105469 21.50113281 -4.14210938 21.00226563 -4.73046875 20.48828125 C-6 19 -6 19 -6 16 C-7.36125 16.7734375 -7.36125 16.7734375 -8.75 17.5625 C-12.16419665 19.07262544 -12.68604014 19.08784335 -16 18 C-11.33333333 15.66666667 -6.66666667 13.33333333 -2 11 C-2.33 10.01 -2.66 9.02 -3 8 C-3.99 8 -4.98 8 -6 8 C-6 7.34 -6 6.68 -6 6 C-5.34 6 -4.68 6 -4 6 C-3.67 4.68 -3.34 3.36 -3 2 C-2.01 2.33 -1.02 2.66 0 3 C0 2.01 0 1.02 0 0 Z " fill="#FAF3D9" transform="translate(132,97)"/>
<path d="M0 0 C1.2065625 0.0309375 1.2065625 0.0309375 2.4375 0.0625 C2.4375 4.84897609 1.14797471 6.23594747 -1.5625 10.0625 C-2.25679379 11.3816582 -2.93780495 12.70899406 -3.5625 14.0625 C-3.5625 13.0725 -3.5625 12.0825 -3.5625 11.0625 C-4.5525 11.5575 -4.5525 11.5575 -5.5625 12.0625 C-5.78827402 17.4810766 -5.02920113 21.83737721 -3.5625 27.0625 C-5.85033297 26.14736681 -7.29699728 25.40765354 -8.8125 23.4375 C-9.93395262 19.88623337 -9.74544561 16.78239413 -9.5625 13.0625 C-9.2325 12.7325 -8.9025 12.4025 -8.5625 12.0625 C-8.32962992 10.38066052 -8.14985834 8.6912584 -8 7 C-7.91621094 6.08089844 -7.83242187 5.16179687 -7.74609375 4.21484375 C-7.68550781 3.50457031 -7.62492187 2.79429688 -7.5625 2.0625 C-6.923125 1.918125 -6.28375 1.77375 -5.625 1.625 C-2.92258807 0.88797856 -2.9576555 0.07213794 0 0 Z " fill="#D6D7D7" transform="translate(119.5625,67.9375)"/>
<path d="M0 0 C2.00720923 0.28674418 4.0085944 0.61866701 6 1 C5.85953745 3.95867918 5.71287776 6.91682264 5.5625 9.875 C5.50352539 11.13763672 5.50352539 11.13763672 5.44335938 12.42578125 C5.40146484 13.23144531 5.35957031 14.03710938 5.31640625 14.8671875 C5.27974854 15.61081543 5.24309082 16.35444336 5.20532227 17.12060547 C5 19 5 19 4 21 C0.125 20.125 0.125 20.125 -1 19 C-1.0983721 17.66956375 -1.13078592 16.33406656 -1.1328125 15 C-1.13410156 14.195625 -1.13539062 13.39125 -1.13671875 12.5625 C-1.13285156 11.716875 -1.12898438 10.87125 -1.125 10 C-1.12886719 9.154375 -1.13273437 8.30875 -1.13671875 7.4375 C-1.13542969 6.633125 -1.13414063 5.82875 -1.1328125 5 C-1.13168457 4.2575 -1.13055664 3.515 -1.12939453 2.75 C-1 1 -1 1 0 0 Z " fill="#F1DFAD" transform="translate(120,129)"/>
<path d="M0 0 C0.99 0.33 1.98 0.66 3 1 C3 1.99 3 2.98 3 4 C3.64453125 4.23460937 4.2890625 4.46921875 4.953125 4.7109375 C7 6 7 6 7.609375 8.1640625 C7.65578125 8.97617187 7.7021875 9.78828125 7.75 10.625 C7.80671875 11.44226562 7.8634375 12.25953125 7.921875 13.1015625 C7.96054688 14.04128906 7.96054688 14.04128906 8 15 C6.54462432 15.83848804 5.08559627 16.67063934 3.625 17.5 C2.81289062 17.9640625 2.00078125 18.428125 1.1640625 18.90625 C-1 20 -1 20 -3 20 C-3.66 21.32 -4.32 22.64 -5 24 C-5.33 23.34 -5.66 22.68 -6 22 C-4.00212523 17.41664024 -1.52649831 15.91118818 3 14 C2.34 13.67 1.68 13.34 1 13 C-1.12606999 9.61403669 -2.05422514 7.71848306 -1.75 3.6875 C-1 1 -1 1 0 0 Z " fill="#E7DDB5" transform="translate(132,43)"/>
<path d="M0 0 C-0.33 1.32 -0.66 2.64 -1 4 C-2.98 4.33 -4.96 4.66 -7 5 C-6.67 5.99 -6.34 6.98 -6 8 C-6.33 8.66 -6.66 9.32 -7 10 C-6.34 10.33 -5.68 10.66 -5 11 C-13.17367067 11.4485551 -18.97563746 11.40744316 -26 7 C-26 6.67 -26 6.34 -26 6 C-24.85402344 5.90203125 -23.70804688 5.8040625 -22.52734375 5.703125 C-20.99731172 5.55293781 -19.4673681 5.40184795 -17.9375 5.25 C-16.80924805 5.1571875 -16.80924805 5.1571875 -15.65820312 5.0625 C-10.15778869 4.49102837 -4.86988902 0 0 0 Z " fill="#AEB1B3" transform="translate(169,100)"/>
<path d="M0 0 C0.103125 0.639375 0.20625 1.27875 0.3125 1.9375 C0.539375 2.618125 0.76625 3.29875 1 4 C1.99 4.33 2.98 4.66 4 5 C6.65779292 9.82340197 8.13487673 14.45171378 7 20 C5.69852531 22.97479928 4.24005739 25.63614996 2 28 C-0.171875 28.72265625 -0.171875 28.72265625 -2 29 C-1.71125 28.50371094 -1.4225 28.00742188 -1.125 27.49609375 C1.43083993 22.81926166 2.62957658 19.45633038 2 14 C1.66484375 13.38125 1.3296875 12.7625 0.984375 12.125 C-0.2244836 9.51540048 -0.20028479 7.61082213 -0.125 4.75 C-0.09792969 3.41195312 -0.09792969 3.41195312 -0.0703125 2.046875 C-0.04710937 1.37140625 -0.02390625 0.6959375 0 0 Z " fill="#E4D4A4" transform="translate(143,71)"/>
<path d="M0 0 C1.4783226 2.95664519 1.06032783 5.74229737 1 9 C2.98 9 4.96 9 7 9 C6.95875 8.05125 6.9175 7.1025 6.875 6.125 C7 3 7 3 9 1 C11.625 0.875 11.625 0.875 14 1 C15.09587955 5.24551856 14.92865836 8.9592839 14.5625 13.3125 C14.46066406 14.56675781 14.35882813 15.82101563 14.25390625 17.11328125 C14.17011719 18.06589844 14.08632812 19.01851562 14 20 C13.67 20 13.34 20 13 20 C13 14.39 13 8.78 13 3 C11.68 3 10.36 3 9 3 C9 5.31 9 7.62 9 10 C6.03 10 3.06 10 0 10 C0 7.69 0 5.38 0 3 C-1.32 3 -2.64 3 -4 3 C-4 8.61 -4 14.22 -4 20 C-2.68 20.33 -1.36 20.66 0 21 C-1.65 21 -3.3 21 -5 21 C-5.82351864 14.61773055 -6.12086218 8.43255401 -6 2 C-2.25 0 -2.25 0 0 0 Z " fill="#F8EECF" transform="translate(100,128)"/>
<path d="M0 0 C1 3 1 3 0.3125 5.0625 C-1 7 -1 7 -3.0625 8 C-3.701875 8.33 -4.34125 8.66 -5 9 C-5.103125 9.61875 -5.20625 10.2375 -5.3125 10.875 C-6.17869197 13.55232064 -7.03581002 13.82851905 -9.4375 15.1875 C-13.61432503 17.31255133 -15.49469746 18.12186285 -20.125 18.0625 C-21.03507813 18.05347656 -21.94515625 18.04445313 -22.8828125 18.03515625 C-23.93082031 18.01775391 -23.93082031 18.01775391 -25 18 C-22.30403303 16.20268868 -20.65649901 15.53073266 -17.625 14.6875 C-13.27022453 13.28273372 -11.06192027 11.46480452 -8 8 C-6.17644436 6.41123693 -4.31966589 4.86989864 -2.453125 3.33203125 C-0.87220817 2.0420309 -0.87220817 2.0420309 0 0 Z " fill="#EBCE7E" transform="translate(173,86)"/>
<path d="M0 0 C0 1.98 0 3.96 0 6 C0.845625 5.835 1.69125 5.67 2.5625 5.5 C7.30697732 6.19010579 8.74251106 8.5476272 11.6796875 12.15234375 C13 14 13 14 13 15 C10.875 15.4375 10.875 15.4375 8 15 C6.24583979 13.3273289 4.80473715 11.55236118 3.33203125 9.62890625 C2.07775666 7.86833905 2.07775666 7.86833905 0 7 C0 9.64 0 12.28 0 15 C-0.99 15 -1.98 15 -3 15 C-3 10.38 -3 5.76 -3 1 C-1 0 -1 0 0 0 Z " fill="#E2C46E" transform="translate(156,133)"/>
<path d="M0 0 C0.66 0 1.32 0 2 0 C5.65111665 6.54158399 5.29887594 12.63879629 5 20 C4.01 19.34 3.02 18.68 2 18 C2.33 21.96 2.66 25.92 3 30 C1 29 1 29 0 26 C-0.08291953 24.0079697 -0.10738177 22.01326287 -0.09765625 20.01953125 C-0.09443359 18.85615234 -0.09121094 17.69277344 -0.08789062 16.49414062 C-0.07951172 15.27919922 -0.07113281 14.06425781 -0.0625 12.8125 C-0.05798828 11.58595703 -0.05347656 10.35941406 -0.04882812 9.09570312 C-0.03703065 6.06375332 -0.02056921 3.03190094 0 0 Z " fill="#EBD99A" transform="translate(105,62)"/>
<path d="M0 0 C2.56640625 1.0390625 2.56640625 1.0390625 5.5625 2.625 C7.04943359 3.38683594 7.04943359 3.38683594 8.56640625 4.1640625 C11 6 11 6 11.83984375 8.7109375 C11.89269531 9.46632812 11.94554688 10.22171875 12 11 C10.0373772 13.04795423 8.5722693 13.94976638 5.73046875 14.19921875 C3.48045617 14.18858877 1.24614438 14.12958525 -1 14 C-0.67 13.01 -0.34 12.02 0 11 C2.64 11.33 5.28 11.66 8 12 C8 10.68 8 9.36 8 8 C6.906875 7.773125 5.81375 7.54625 4.6875 7.3125 C1 6 1 6 -0.9375 3.375 C-1.288125 2.59125 -1.63875 1.8075 -2 1 C-1.34 0.67 -0.68 0.34 0 0 Z " fill="#CCB071" transform="translate(79,134)"/>
<path d="M0 0 C1.32 0.33 2.64 0.66 4 1 C3.01 1 2.02 1 1 1 C1.474375 2.19625 1.94875 3.3925 2.4375 4.625 C3.73482773 8.06414238 4.54236951 11.33895604 5 15 C3.58994275 16.15395711 2.17166542 17.29787466 0.75 18.4375 C-0.03890625 19.07558594 -0.8278125 19.71367188 -1.640625 20.37109375 C-3.86247492 21.90505305 -5.36743482 22.57130246 -8 23 C-7.57847656 22.37351562 -7.15695313 21.74703125 -6.72265625 21.1015625 C-6.17480469 20.28429687 -5.62695312 19.46703125 -5.0625 18.625 C-4.51722656 17.81289062 -3.97195312 17.00078125 -3.41015625 16.1640625 C-1.08143655 12.59034862 -0.75462843 10.13358182 -0.4375 5.875 C-0.35371094 4.77929688 -0.26992187 3.68359375 -0.18359375 2.5546875 C-0.12300781 1.71164063 -0.06242188 0.86859375 0 0 Z " fill="#D0C9BB" transform="translate(165,76)"/>
<path d="M0 0 C6.15651906 1.23130381 8.91080486 3.21264959 13 8 C13 8.66 13 9.32 13 10 C13.66 10 14.32 10 15 10 C15 11.98 15 13.96 15 16 C14.01 16.33 13.02 16.66 12 17 C11.03874097 15.58531689 10.08111675 14.1681636 9.125 12.75 C8.59132813 11.96109375 8.05765625 11.1721875 7.5078125 10.359375 C6 8 6 8 4.9375 5.84375 C3.70662074 3.4230208 1.97191752 1.84045635 0 0 Z " fill="#EFD68D" transform="translate(85,77)"/>
<path d="M0 0 C1.75570312 0.02707031 1.75570312 0.02707031 3.546875 0.0546875 C4.88492188 0.08949219 4.88492188 0.08949219 6.25 0.125 C4.875 1.625 4.875 1.625 3.25 3.125 C2.59 3.125 1.93 3.125 1.25 3.125 C1.25 4.445 1.25 5.765 1.25 7.125 C-2.16021743 6.33802675 -5.43885166 5.25380057 -8.75 4.125 C-7.63625 5.1459375 -7.63625 5.1459375 -6.5 6.1875 C-3.49584465 9.19165535 -1.62032217 12.3124202 0.25 16.125 C-0.08 16.785 -0.41 17.445 -0.75 18.125 C-1.22050781 17.42632812 -1.69101563 16.72765625 -2.17578125 16.0078125 C-2.79839844 15.09773438 -3.42101562 14.18765625 -4.0625 13.25 C-4.67738281 12.34507813 -5.29226562 11.44015625 -5.92578125 10.5078125 C-7.69913949 7.92528615 -7.69913949 7.92528615 -10.75 6.125 C-10.75 4.805 -10.75 3.485 -10.75 2.125 C-7.15537669 -0.13498595 -4.18404325 -0.08368087 0 0 Z " fill="#F9F6E6" transform="translate(94.75,73.875)"/>
<path d="M0 0 C2.84557514 3.0827064 2.15388983 6.99886447 2 11 C1.67 11 1.34 11 1 11 C0.01 8.03 -0.98 5.06 -2 2 C-1.67 4.31 -1.34 6.62 -1 9 C-2.32 9 -3.64 9 -5 9 C-5 6.03 -5 3.06 -5 0 C-5.66 0 -6.32 0 -7 0 C-7 2.97 -7 5.94 -7 9 C-8.32 9.33 -9.64 9.66 -11 10 C-11 6.7 -11 3.4 -11 0 C-7.0997958 -1.30006807 -3.95174645 -1.08395637 0 0 Z " fill="#F8F2D9" transform="translate(141,81)"/>
<path d="M0 0 C0.66 0.33 1.32 0.66 2 1 C2.48964896 8.22232223 2.48964896 8.22232223 0.40625 11.53125 C-2.4068193 14.41738603 -5.16569864 15.98450631 -8.75 17.8125 C-9.92046875 18.41707031 -11.0909375 19.02164063 -12.296875 19.64453125 C-13.18890625 20.09183594 -14.0809375 20.53914063 -15 21 C-13.28404071 17.22174102 -11.30961439 15.52161096 -8 13 C-4.99784125 10.33141445 -3.92525006 8.8331788 -3 5 C-2.01 4.67 -1.02 4.34 0 4 C0 2.68 0 1.36 0 0 Z " fill="#DFCB81" transform="translate(143,57)"/>
<path d="M0 0 C0.66 0 1.32 0 2 0 C2.02578125 0.78503906 2.0515625 1.57007812 2.078125 2.37890625 C2.43577896 9.00363294 2.843315 13.71988663 7 19 C10.08380786 20.96183059 10.08380786 20.96183059 13 22 C8.96502305 23.32383514 6.55682774 22.57532489 2.7109375 21.03125 C1 20 1 20 -0.0625 17.375 C0 15 0 15 1 14 C0.67 13.154375 0.34 12.30875 0 11.4375 C-1.06661611 7.77100711 -1.22344058 4.79848978 -1 1 C-0.67 0.67 -0.34 0.34 0 0 Z " fill="#B8AF9A" transform="translate(114,79)"/>
<path d="M0 0 C-1.06336954 2.70675883 -1.97926656 3.98364636 -4.29296875 5.80859375 C-12.72891083 12.63768972 -18.67902407 21.16799737 -20 32 C-20.33 32 -20.66 32 -21 32 C-21.45598581 25.61619861 -20.64159484 21.32997062 -17 16 C-15.9493022 14.86473384 -14.86604822 13.75858893 -13.75 12.6875 C-12.8425 11.800625 -11.935 10.91375 -11 10 C-11 9.01 -11 8.02 -11 7 C-8.50149916 3.80747115 -4.12817749 0 0 0 Z " fill="#F5F0D4" transform="translate(139,58)"/>
<path d="M0 0 C0 0.99 0 1.98 0 3 C-0.99 3.495 -0.99 3.495 -2 4 C-1.01 4.66 -0.02 5.32 1 6 C0.67 6.66 0.34 7.32 0 8 C-2.72265625 8.4140625 -2.72265625 8.4140625 -6.0625 8.625 C-7.16722656 8.69976562 -8.27195312 8.77453125 -9.41015625 8.8515625 C-10.26480469 8.90054688 -11.11945313 8.94953125 -12 9 C-12 9.66 -12 10.32 -12 11 C-12.66 11 -13.32 11 -14 11 C-13.43736042 7.49490749 -12.34814818 6.04731992 -9.625 3.8125 C-9.01914063 3.30332031 -8.41328125 2.79414062 -7.7890625 2.26953125 C-5.15546055 0.40070891 -3.21533272 0 0 0 Z " fill="#F7F5E9" transform="translate(98,100)"/>
<path d="M0 0 C0.66 0 1.32 0 2 0 C1.85904936 1.6254308 1.71207913 3.25034051 1.5625 4.875 C1.48128906 5.77992187 1.40007812 6.68484375 1.31640625 7.6171875 C1 10 1 10 0 12 C0.66 12 1.32 12 2 12 C2.33 11.01 2.66 10.02 3 9 C4 12 4 12 3.0625 14.5 C0.30743417 17.83947374 -2.76009955 19.20247554 -7 20 C-9.25390625 19.5703125 -9.25390625 19.5703125 -11 19 C-9.906875 18.505 -8.81375 18.01 -7.6875 17.5 C-3.90621802 15.33817616 -2.74062102 13.20054298 -1.48828125 9.10546875 C-0.78451008 6.07080747 -0.32285153 3.09937465 0 0 Z " fill="#B4AC9E" transform="translate(154,82)"/>
<path d="M0 0 C0.66 0 1.32 0 2 0 C2.02578125 0.71285156 2.0515625 1.42570312 2.078125 2.16015625 C2.57829525 10.60621291 4.7003176 15.375397 10 22 C4.79971748 20.31755566 0.45479808 17.44670586 -2.375 12.6875 C-2.58125 12.130625 -2.7875 11.57375 -3 11 C-2.34 10.01 -1.68 9.02 -1 8 C-0.54860541 5.9507906 -0.54860541 5.9507906 -0.375 3.8125 C-0.25125 2.554375 -0.1275 1.29625 0 0 Z " fill="#C9C3BA" transform="translate(103,77)"/>
<path d="M0 0 C3.1744176 1.09462676 3.98914157 1.98177335 5.75 4.9375 C7 8 7 8 7 11 C5.68 11 4.36 11 3 11 C2.34 9.68 1.68 8.36 1 7 C-4.71337373 6.40763416 -4.71337373 6.40763416 -9.5 9 C-9.995 9.66 -10.49 10.32 -11 11 C-10.45276317 7.62537285 -9.9451 5.91765 -8 3 C-5.36 3.33 -2.72 3.66 0 4 C0 2.68 0 1.36 0 0 Z " fill="#DABA60" transform="translate(184,137)"/>
<path d="M0 0 C1.32 0 2.64 0 4 0 C4 5.61 4 11.22 4 17 C2.68 17 1.36 17 0 17 C0 11.39 0 5.78 0 0 Z " fill="#D4B265" transform="translate(109,131)"/>
<path d="M0 0 C3.1875 2.3125 3.1875 2.3125 5 5 C5 5.99 5 6.98 5 8 C4.01 8 3.02 8 2 8 C1.67 7.01 1.34 6.02 1 5 C-3.2024454 2.19836974 -6.00104935 2.85510288 -11 3 C-11.33 7.95 -11.66 12.9 -12 18 C-12.33 18 -12.66 18 -13 18 C-13 12.39 -13 6.78 -13 1 C-9.04314075 -0.97842963 -4.30215682 -0.56411566 0 0 Z " fill="#F6EED2" transform="translate(164,129)"/>
<path d="M0 0 C4.59006977 3.60648339 6.793106 8.39762787 8 14 C7.82134646 25.22965124 7.82134646 25.22965124 4.046875 28.8984375 C2 30 2 30 -0.25 29.6875 C-0.8275 29.460625 -1.405 29.23375 -2 29 C-1.01 28.67 -0.02 28.34 1 28 C2.12516085 26.16715557 2.12516085 26.16715557 3 24 C3.37125 23.4225 3.7425 22.845 4.125 22.25 C5.99177787 17.44971404 5.51844036 12.73362697 3.625 8.0625 C2.34213779 4.92920418 2.34213779 4.92920418 0 4 C0 2.68 0 1.36 0 0 Z " fill="#F2EAC7" transform="translate(144,71)"/>
<path d="M0 0 C2.31 0.66 4.62 1.32 7 2 C7.22181406 4.43695715 7.42791119 6.873526 7.625 9.3125 C7.68945312 10.00279297 7.75390625 10.69308594 7.8203125 11.40429688 C8.11802847 15.2559972 8.20763723 16.68854416 6 20 C5.34 20 4.68 20 4 20 C4.66 16.04 5.32 12.08 6 8 C5.01 8.33 4.02 8.66 3 9 C2.01 6.03 1.02 3.06 0 0 Z " fill="#BCBBC0" transform="translate(150,74)"/>
<path d="M0 0 C0.99 0.33 1.98 0.66 3 1 C2.52949219 1.42410156 2.05898437 1.84820312 1.57421875 2.28515625 C-3.16807378 6.75253327 -6.64152199 10.6915002 -7.20703125 17.48828125 C-7.27667647 21.76196517 -7.10724862 25.84781768 -6 30 C-9.971045 24.82037608 -10.58558245 21.48399477 -10 15 C-8.32366172 9.70630018 -6.04584114 6.73462259 -2 3 C-1.34 2.01 -0.68 1.02 0 0 Z " fill="#E1DECD" transform="translate(126,67)"/>
<path d="M0 0 C4.45642255 0.48640222 8.92498995 0.36484882 13.40234375 0.32470703 C14.36785156 0.32019531 15.33335938 0.31568359 16.328125 0.31103516 C18.68626464 0.2993612 21.04426977 0.28298724 23.40234375 0.26220703 C20.15051104 3.51403974 15.48877945 2.69905767 11.08007812 2.82861328 C9.18364376 2.90784669 7.29148314 3.07810485 5.40234375 3.26220703 C5.07234375 3.92220703 4.74234375 4.58220703 4.40234375 5.26220703 C2.77511076 4.8118658 1.15060711 4.35165349 -0.47265625 3.88720703 C-1.37757812 3.63197266 -2.2825 3.37673828 -3.21484375 3.11376953 C-5.59765625 2.26220703 -5.59765625 2.26220703 -7.59765625 0.26220703 C-4.90026002 -1.08649108 -2.89982341 -0.40836121 0 0 Z " fill="#D8BD81" transform="translate(97.59765625,109.73779296875)"/>
<path d="M0 0 C6.93 0.495 6.93 0.495 14 1 C15 6 15 6 13.99609375 7.703125 C13.48175781 8.21359375 12.96742188 8.7240625 12.4375 9.25 C9.235209 12.63890469 6.77994657 16.24148259 4.296875 20.1796875 C3 22 3 22 1 23 C2.74707089 19.30567302 4.85932533 15.8497183 7 12.375 C7.35578125 11.78976563 7.7115625 11.20453125 8.078125 10.6015625 C9.57665207 8.16366025 10.96892972 6.03107028 13 4 C8.71 3.01 4.42 2.02 0 1 C0 0.67 0 0.34 0 0 Z " fill="#F8F4E4" transform="translate(170,74)"/>
<path d="M0 0 C2.0625 0.4375 2.0625 0.4375 4 1 C3.39733215 5.50727647 1.63400206 8.8587963 -0.5625 12.8125 C-1.0565332 13.7087207 -1.0565332 13.7087207 -1.56054688 14.62304688 C-2.36773267 16.08533998 -3.18304917 17.5431399 -4 19 C-5 16 -5 16 -4.00390625 13.73828125 C-3.52824219 12.93777344 -3.05257812 12.13726562 -2.5625 11.3125 C-2.08941406 10.50425781 -1.61632812 9.69601563 -1.12890625 8.86328125 C-0.75636719 8.24839844 -0.38382813 7.63351563 0 7 C-1.32 7.99 -2.64 8.98 -4 10 C-2.28571429 2.28571429 -2.28571429 2.28571429 0 0 Z " fill="#F5ECCC" transform="translate(145,129)"/>
<path d="M0 0 C-1.64110448 3.28220895 -4.69322988 3.74570789 -8 5 C-8.99 5 -9.98 5 -11 5 C-11.33 4.34 -11.66 3.68 -12 3 C-18.27 3 -24.54 3 -31 3 C-31 2.67 -31 2.34 -31 2 C-27.52147832 1.65970492 -24.04210091 1.3290613 -20.5625 1 C-19.58861328 0.90460938 -18.61472656 0.80921875 -17.61132812 0.7109375 C-11.70951151 0.15825902 -5.92744322 -0.09807559 0 0 Z " fill="#DABE7F" transform="translate(182,109)"/>
<path d="M0 0 C0.99 0.33 1.98 0.66 3 1 C3.625 2.890625 3.625 2.890625 4 5.25 C4.7149932 9.09996337 5.93596844 11.65823462 8 15 C7.67 15.99 7.34 16.98 7 18 C4.58203125 16.98046875 4.58203125 16.98046875 2 15 C1.29548261 12.28002779 0.90096979 10.06703188 0.6875 7.3125 C0.61466797 6.61060547 0.54183594 5.90871094 0.46679688 5.18554688 C0.29061937 3.45900733 0.14254117 1.72964138 0 0 Z " fill="#E1CA85" transform="translate(106,79)"/>
<path d="M0 0 C0.66 0.33 1.32 0.66 2 1 C1.67 1.33 1.34 1.66 1 2 C3.97 3.485 3.97 3.485 7 5 C7.33 10.61 7.66 16.22 8 22 C7.34 21.67 6.68 21.34 6 21 C5.5859375 18.05859375 5.5859375 18.05859375 5.375 14.4375 C5.26285156 12.64119141 5.26285156 12.64119141 5.1484375 10.80859375 C5.09945312 9.88175781 5.05046875 8.95492187 5 8 C3.83404297 7.53980469 3.83404297 7.53980469 2.64453125 7.0703125 C0.35989202 6.14565792 -1.81376975 5.13360087 -4 4 C-2.68 2.68 -1.36 1.36 0 0 Z " fill="#E2E0DB" transform="translate(151,65)"/>
<path d="M0 0 C0.33 1.32 0.66 2.64 1 4 C-0.32 4.33 -1.64 4.66 -3 5 C-3 4.34 -3 3.68 -3 3 C-4.98 3 -6.96 3 -9 3 C-9.33 3.99 -9.66 4.98 -10 6 C-10.99 6 -11.98 6 -13 6 C-12.8125 3.625 -12.8125 3.625 -12 1 C-7.95664562 -1.61628813 -4.56788952 -0.89566461 0 0 Z " fill="#ECE0C0" transform="translate(90,129)"/>
<path d="M0 0 C2 0 2 0 4.375 2.3125 C5.24125 3.199375 6.1075 4.08625 7 5 C10.70791728 8.57549166 15.08749991 9.10777242 20 10 C20 10.33 20 10.66 20 11 C19.32453125 10.94199219 18.6490625 10.88398437 17.953125 10.82421875 C15.22829033 10.68640197 12.70737881 10.64612214 10 11 C7.4879561 13.24291412 7.4879561 13.24291412 6 16 C5.01 16.66 4.02 17.32 3 18 C2.01 17.67 1.02 17.34 0 17 C2.31 15.35 4.62 13.7 7 12 C6.88658466 9.59122743 6.88658466 9.59122743 6 7 C4.35178756 5.96986723 2.68496298 4.96885372 1 4 C0.1875 1.8125 0.1875 1.8125 0 0 Z " fill="#F2E5BC" transform="translate(137,105)"/>
<path d="M0 0 C1.32 0.66 2.64 1.32 4 2 C3.67 2.99 3.34 3.98 3 5 C2.01 5 1.02 5 0 5 C-0.33 6.32 -0.66 7.64 -1 9 C-2.98 9.33 -4.96 9.66 -7 10 C-7 8.35 -7 6.7 -7 5 C-5.5459375 4.5978125 -5.5459375 4.5978125 -4.0625 4.1875 C-3.051875 3.795625 -2.04125 3.40375 -1 3 C-0.67 2.01 -0.34 1.02 0 0 Z " fill="#CDCECE" transform="translate(169,100)"/>
<path d="M0 0 C0.66 0.33 1.32 0.66 2 1 C1.67 3.97 1.34 6.94 1 10 C1.66 10.33 2.32 10.66 3 11 C3 12.32 3 13.64 3 15 C2.67 14.34 2.34 13.68 2 13 C-0.02463255 12.34786708 -0.02463255 12.34786708 -2 12 C-3.01911045 8.10885099 -3.16782969 6.39403493 -1.5625 2.625 C-1.046875 1.75875 -0.53125 0.8925 0 0 Z " fill="#EBE1C7" transform="translate(129,81)"/>
<path d="M0 0 C4.59306496 1.4859916 7.43569245 3.85014682 11 7 C10.67 8.32 10.34 9.64 10 11 C9.34 10.67 8.68 10.34 8 10 C7.375 7.9375 7.375 7.9375 7 6 C6.67 6.33 6.34 6.66 6 7 C3.32941149 7.14115161 0.67567762 7.04247107 -2 7 C-1.34 6.67 -0.68 6.34 0 6 C0 4.02 0 2.04 0 0 Z " fill="#F5F4EA" transform="translate(175,101)"/>
<path d="M0 0 C0.66 0 1.32 0 2 0 C3.31480314 5.7373228 2.85583935 9.78695992 0 15 C-1.609375 16.734375 -1.609375 16.734375 -3 18 C-3.66 17.67 -4.32 17.34 -5 17 C-4.72285156 16.443125 -4.44570312 15.88625 -4.16015625 15.3125 C-1.68683764 10.10180741 -0.41838796 5.75283447 0 0 Z " fill="#E6CE7E" transform="translate(161,78)"/>
<path d="M0 0 C0.66 0.33 1.32 0.66 2 1 C1.09515208 2.15518918 0.1755794 3.29885406 -0.75 4.4375 C-1.26046875 5.07558594 -1.7709375 5.71367188 -2.296875 6.37109375 C-4.23299188 8.22283856 -5.45583771 8.38464367 -8 9 C-8.99 10.485 -8.99 10.485 -10 12 C-10.66 12 -11.32 12 -12 12 C-11.67 10.68 -11.34 9.36 -11 8 C-10.34 8 -9.68 8 -9 8 C-8.7215625 7.13375 -8.7215625 7.13375 -8.4375 6.25 C-6.25430308 2.83282221 -3.63940716 1.75471417 0 0 Z " fill="#E1D295" transform="translate(182,77)"/>
<path d="M0 0 C0 4.02627976 -1.73312762 5.73303687 -4 9 C-4.69429379 10.3191582 -5.37530495 11.64649406 -6 13 C-6 12.01 -6 11.02 -6 10 C-6.99 10.33 -7.98 10.66 -9 11 C-9 8.69 -9 6.38 -9 4 C-8.195625 3.87625 -7.39125 3.7525 -6.5625 3.625 C-5.716875 3.41875 -4.87125 3.2125 -4 3 C-3.67 2.34 -3.34 1.68 -3 1 C-2.01 0.67 -1.02 0.34 0 0 Z " fill="#C7C8C9" transform="translate(122,69)"/>
<path d="M0 0 C4.29 0 8.58 0 13 0 C12.67 0.99 12.34 1.98 12 3 C12.99 3.66 13.98 4.32 15 5 C8.92671312 5.50610724 5.22771463 4.04157942 0 1 C0 0.67 0 0.34 0 0 Z " fill="#988E8A" transform="translate(143,106)"/>
<path d="M0 0 C0.66 0 1.32 0 2 0 C2 2.97 2 5.94 2 9 C0.02 9.99 0.02 9.99 -2 11 C-2.33 10.01 -2.66 9.02 -3 8 C-3.99 8 -4.98 8 -6 8 C-6 7.34 -6 6.68 -6 6 C-5.34 6 -4.68 6 -4 6 C-3.67 4.68 -3.34 3.36 -3 2 C-2.01 2.33 -1.02 2.66 0 3 C0 2.01 0 1.02 0 0 Z " fill="#F3EBDF" transform="translate(132,97)"/>
<path d="M0 0 C1.32 0 2.64 0 4 0 C4.33 0.66 4.66 1.32 5 2 C7.11327425 2.90725434 7.11327425 2.90725434 9.5625 3.625 C10.38878906 3.88539062 11.21507813 4.14578125 12.06640625 4.4140625 C13.02353516 4.70410156 13.02353516 4.70410156 14 5 C14 5.33 14 5.66 14 6 C8.01006953 6.3152595 4.36439644 5.68219822 -1 3 C-0.67 2.01 -0.34 1.02 0 0 Z " fill="#D0B878" transform="translate(107,98)"/>
<path d="M0 0 C0.55558594 0.36609375 1.11117187 0.7321875 1.68359375 1.109375 C-2.76542093 3.80219968 -5.21834988 5.23883726 -10.44140625 5.171875 C-11.35148438 5.16285156 -12.2615625 5.15382813 -13.19921875 5.14453125 C-13.89789063 5.13292969 -14.5965625 5.12132813 -15.31640625 5.109375 C-12.67530421 3.3486403 -10.28334891 2.09976856 -7.37890625 0.859375 C-6.52425781 0.48296875 -5.66960937 0.1065625 -4.7890625 -0.28125 C-2.31640625 -0.890625 -2.31640625 -0.890625 0 0 Z " fill="#D8BF65" transform="translate(163.31640625,98.890625)"/>
<path d="M0 0 C1.65 0 3.3 0 5 0 C4.91253716 1.43861294 4.80434652 2.87597508 4.6875 4.3125 C4.62949219 5.11300781 4.57148437 5.91351563 4.51171875 6.73828125 C3.91793306 9.36272334 3.04219706 10.30820672 1 12 C0.34 11.67 -0.32 11.34 -1 11 C-0.67 7.37 -0.34 3.74 0 0 Z " fill="#D5D6D3" transform="translate(99,76)"/>
<path d="M0 0 C1.65 0 3.3 0 5 0 C3.68 0.33 2.36 0.66 1 1 C1 2.98 1 4.96 1 7 C1.66 7 2.32 7 3 7 C3.33 7.99 3.66 8.98 4 10 C2.02 10.99 2.02 10.99 0 12 C-3 5.375 -3 5.375 -3 2 C-2.01 2 -1.02 2 0 2 C0 1.34 0 0.68 0 0 Z " fill="#DBDAD4" transform="translate(169,75)"/>
<path d="M0 0 C0 0.66 0 1.32 0 2 C-4.92737019 3.97094808 -8.78020872 4.1799928 -14 4 C-14 3.01 -14 2.02 -14 1 C-12.23103898 0.63659714 -10.45973374 0.28459117 -8.6875 -0.0625 C-7.70136719 -0.25972656 -6.71523437 -0.45695312 -5.69921875 -0.66015625 C-3 -1 -3 -1 0 0 Z " fill="#D4A746" transform="translate(171,112)"/>
<path d="M0 0 C0.99 0.33 1.98 0.66 3 1 C2.484375 1.4125 1.96875 1.825 1.4375 2.25 C-0.21724408 3.87240073 -0.21724408 3.87240073 0.0625 5.9375 C1.24689708 8.54317359 2.89078445 10.09490208 5 12 C2.08482708 10.92598892 0.22189824 10.22189824 -2 8 C-2 7.01 -2 6.02 -2 5 C-3.36125 5.7734375 -3.36125 5.7734375 -4.75 6.5625 C-8.16419665 8.07262544 -8.68604014 8.08784335 -12 7 C-11.30132812 6.66226563 -10.60265625 6.32453125 -9.8828125 5.9765625 C-8.97273438 5.53054687 -8.06265625 5.08453125 -7.125 4.625 C-6.22007813 4.18414062 -5.31515625 3.74328125 -4.3828125 3.2890625 C-1.90465528 2.09497301 -1.90465528 2.09497301 0 0 Z " fill="#F9F0C9" transform="translate(128,108)"/>
<path d="M0 0 C2.31 1.65 4.62 3.3 7 5 C6.9375 7.1875 6.9375 7.1875 6 10 C3.8282781 11.93157957 1.47398953 13.48201687 -1 15 C-1 14.01 -1 13.02 -1 12 C1 10.3125 1 10.3125 3 9 C2.44271087 5.65626525 1.64826111 2.96687001 0 0 Z " fill="#C8B178" transform="translate(138,108)"/>
<path d="M0 0 C-3.3995586 3.67112097 -6.85751338 4.90684841 -11.875 5.125 C-12.57625 5.08375 -13.2775 5.0425 -14 5 C-9.74404706 -0.49155218 -6.48540926 -0.63582444 0 0 Z " fill="#8F8D89" transform="translate(126,106)"/>
<path d="M0 0 C1.125 1.6875 1.125 1.6875 2 4 C1.22309567 7.88452166 0.09955721 8.92632766 -3.125 11.3125 C-4.548125 12.1478125 -4.548125 12.1478125 -6 13 C-6.66 12.67 -7.32 12.34 -8 12 C-7.236875 11.13375 -6.47375 10.2675 -5.6875 9.375 C-3.24779927 6.46399345 -1.57001723 3.47056439 0 0 Z " fill="#B2AC9B" transform="translate(165,86)"/>
<path d="M0 0 C0.33 0.66 0.66 1.32 1 2 C-2.12621626 5.39417765 -4.56541027 7.6062718 -9 9 C-9.33 7.68 -9.66 6.36 -10 5 C-7 3 -7 3 -4.4375 2.5 C-1.83145436 2.19851753 -1.83145436 2.19851753 0 0 Z " fill="#EFD9AB" transform="translate(139,64)"/>
<path d="M0 0 C2.84574968 1.27568089 5.18089981 2.41496289 7 5 C6.6875 7.6875 6.6875 7.6875 6 10 C3 9 3 9 1.3125 6.6875 C0 4 0 4 0 0 Z " fill="#CFB05D" transform="translate(134,138)"/>
<path d="M0 0 C0.66 0 1.32 0 2 0 C2.33 5.28 2.66 10.56 3 16 C-0.41076723 12.58923277 -0.95511242 8.91271414 -1.1875 4.1875 C-1 1 -1 1 0 0 Z " fill="#A3A3A6" transform="translate(114,79)"/>
<path d="M0 0 C0.66 0.66 1.32 1.32 2 2 C1.625 4.125 1.625 4.125 1 6 C-0.051875 5.95875 -1.10375 5.9175 -2.1875 5.875 C-5.74010173 5.99147875 -7.84866641 6.47208068 -11 8 C-7.72291137 4.32966073 -4.28477792 2.30718811 0 0 Z " fill="#F2EBC9" transform="translate(139,71)"/>
<path d="M0 0 C1.32 0 2.64 0 4 0 C4.66 0.66 5.32 1.32 6 2 C8.06874034 2.6425235 8.06874034 2.6425235 10 3 C9.67 4.32 9.34 5.64 9 7 C6.69 6.67 4.38 6.34 2 6 C1.87625 5.360625 1.7525 4.72125 1.625 4.0625 C1.315625 3.0415625 1.315625 3.0415625 1 2 C0.34 1.67 -0.32 1.34 -1 1 C-0.67 0.67 -0.34 0.34 0 0 Z " fill="#D0CFCF" transform="translate(147,69)"/>
<path d="M0 0 C1.32 0.33 2.64 0.66 4 1 C4.75 2.75 4.75 2.75 5 5 C3.3125 7.3125 3.3125 7.3125 1 9 C-1.25 8.75 -1.25 8.75 -3 8 C-2 5 -2 5 1 3 C0.67 2.01 0.34 1.02 0 0 Z " fill="#E2E3DD" transform="translate(171,100)"/>
<path d="M0 0 C0.66 1.98 1.32 3.96 2 6 C1.34 6 0.68 6 0 6 C-0.33 7.98 -0.66 9.96 -1 12 C-1.33 12 -1.66 12 -2 12 C-2 10.02 -2 8.04 -2 6 C-2.66 6 -3.32 6 -4 6 C-3.67 4.68 -3.34 3.36 -3 2 C-3.66 1.67 -4.32 1.34 -5 1 C-2 0 -2 0 0 0 Z " fill="#E5CF87" transform="translate(136,91)"/>
<path d="M0 0 C0.33 0 0.66 0 1 0 C1.12375 1.093125 1.2475 2.18625 1.375 3.3125 C1.75464801 7.07381802 1.75464801 7.07381802 4 10 C4.38499891 11.65549531 4.72793135 13.3222433 5 15 C2.71216703 14.08486681 1.26550272 13.34515354 -0.25 11.375 C-1.37145262 7.82373337 -1.18294561 4.71989413 -1 1 C-0.67 0.67 -0.34 0.34 0 0 Z " fill="#DCDBC5" transform="translate(111,80)"/>
<path d="M0 0 C0.33 0.66 0.66 1.32 1 2 C0.62875 2.94875 0.2575 3.8975 -0.125 4.875 C-0.41375 5.90625 -0.7025 6.9375 -1 8 C0.24348469 10.38305196 0.24348469 10.38305196 2 12 C1.67 12.66 1.34 13.32 1 14 C-0.98 12.35 -2.96 10.7 -5 9 C-4.42647107 5.12867972 -2.51295648 2.91827204 0 0 Z " fill="#C9B584" transform="translate(132,106)"/>
<path d="M0 0 C1.73443359 -0.03867188 1.73443359 -0.03867188 3.50390625 -0.078125 C4.47199219 0.03015625 5.44007812 0.1384375 6.4375 0.25 C7.0975 1.24 7.7575 2.23 8.4375 3.25 C7.24253906 3.12431641 7.24253906 3.12431641 6.0234375 2.99609375 C-1.80364462 2.20272862 -1.80364462 2.20272862 -9.5625 3.25 C-9.5625 2.59 -9.5625 1.93 -9.5625 1.25 C-6.20911312 0.13220437 -3.52998767 0.04732944 0 0 Z " fill="#E1D4B1" transform="translate(95.5625,107.75)"/>
<path d="M0 0 C0.99 0.495 0.99 0.495 2 1 C2.99 0.67 3.98 0.34 5 0 C5.66 0.33 6.32 0.66 7 1 C6.01 1.66 5.02 2.32 4 3 C4.33 4.32 4.66 5.64 5 7 C3.35 7.66 1.7 8.32 0 9 C0 6.03 0 3.06 0 0 Z " fill="#F2EFDD" transform="translate(136,97)"/>
<path d="M0 0 C1.485 0.99 1.485 0.99 3 2 C5.51584891 2.24150773 5.51584891 2.24150773 8.1875 2.125 C9.53908203 2.09792969 9.53908203 2.09792969 10.91796875 2.0703125 C11.94857422 2.03550781 11.94857422 2.03550781 13 2 C11 4 11 4 7.875 4.125 C6.92625 4.08375 5.9775 4.0425 5 4 C5 4.66 5 5.32 5 6 C4.01 6 3.02 6 2 6 C1.67 6.66 1.34 7.32 1 8 C0 5 0 5 1 2 C0.34 1.67 -0.32 1.34 -1 1 C-0.67 0.67 -0.34 0.34 0 0 Z " fill="#DFD7C2" transform="translate(140,99)"/>
<path d="M0 0 C2.93200474 2.85276137 5.64315404 5.65079784 8 9 C5.75 9.3125 5.75 9.3125 3 9 C0.625 6.75 0.625 6.75 -1 4 C-0.75 1.6875 -0.75 1.6875 0 0 Z " fill="#CAAF63" transform="translate(161,139)"/>
<path d="M0 0 C2.7558573 4.13378595 3.10756445 6.05203546 3 11 C2.01 11.33 1.02 11.66 0 12 C-0.33 12.66 -0.66 13.32 -1 14 C-1.66 13.01 -2.32 12.02 -3 11 C-2.01 11 -1.02 11 0 11 C0.08083491 7.44326383 -0.11026172 4.43184765 -1 1 C-0.67 0.67 -0.34 0.34 0 0 Z " fill="#E9DDBA" transform="translate(139,82)"/>
<path d="M0 0 C3.465 1.98 3.465 1.98 7 4 C7 4.66 7 5.32 7 6 C5.3125 6.8125 5.3125 6.8125 3 7 C0.25 4.5625 0.25 4.5625 -2 2 C-1.34 1.34 -0.68 0.68 0 0 Z " fill="#DBBD6C" transform="translate(79,134)"/>
<path d="M0 0 C1.98 0 3.96 0 6 0 C5.67 1.32 5.34 2.64 5 4 C6.32 4.66 7.64 5.32 9 6 C6.03 5.67 3.06 5.34 0 5 C0 3.33333333 0 1.66666667 0 0 Z " fill="#A6A5A7" transform="translate(155,105)"/>
<path d="M0 0 C0.99 0 1.98 0 3 0 C3 0.99 3 1.98 3 3 C2.01 3.495 2.01 3.495 1 4 C1.99 4.66 2.98 5.32 4 6 C3.67 6.66 3.34 7.32 3 8 C0.03 7.505 0.03 7.505 -3 7 C-3 5.68 -3 4.36 -3 3 C-2.34 3 -1.68 3 -1 3 C-0.67 2.01 -0.34 1.02 0 0 Z " fill="#E8E6E7" transform="translate(95,100)"/>
<path d="M0 0 C0.84304687 0.42925781 0.84304687 0.42925781 1.703125 0.8671875 C4.02870923 2.01415931 6.37770201 3.07839794 8.75 4.125 C9.54921875 4.47820312 10.3484375 4.83140625 11.171875 5.1953125 C11.77515625 5.46085937 12.3784375 5.72640625 13 6 C13 6.33 13 6.66 13 7 C8.28596212 6.52060632 4.33420699 6.03165952 0 4 C0 2.66666667 0 1.33333333 0 0 Z " fill="#E8D8AA" transform="translate(111,96)"/>
<path d="M0 0 C2.77395848 1.38697924 3.53151207 3.57351074 4.98046875 6.2109375 C6.15887287 8.2787884 7.51418146 10.14272683 9 12 C2.45454545 9.63636364 2.45454545 9.63636364 0 7 C-0.25 3.3125 -0.25 3.3125 0 0 Z " fill="#B3AA98" transform="translate(104,87)"/>
<path d="M0 0 C1.65 0.33 3.3 0.66 5 1 C5.33 2.32 5.66 3.64 6 5 C5.21625 5.144375 4.4325 5.28875 3.625 5.4375 C1.03578982 5.87798925 1.03578982 5.87798925 -1 7 C-1.66 6.67 -2.32 6.34 -3 6 C-3 5.34 -3 4.68 -3 4 C-2.01 3.67 -1.02 3.34 0 3 C0 2.01 0 1.02 0 0 Z " fill="#EAE7E4" transform="translate(115,64)"/>
<path d="M0 0 C2.97 0.495 2.97 0.495 6 1 C5.67 2.98 5.34 4.96 5 7 C3.35 6.67 1.7 6.34 0 6 C0 4.02 0 2.04 0 0 Z " fill="#C3BEBC" transform="translate(103,104)"/>
<path d="M0 0 C0.66 0.33 1.32 0.66 2 1 C2 5.62 2 10.24 2 15 C-1 12 -1 12 -1.328125 9.3359375 C-1.30234375 8.35882813 -1.2765625 7.38171875 -1.25 6.375 C-1.23453125 5.39273438 -1.2190625 4.41046875 -1.203125 3.3984375 C-1 1 -1 1 0 0 Z " fill="#D6C07B" transform="translate(121,80)"/>
<path d="M0 0 C2.64 0.33 5.28 0.66 8 1 C8 1.66 8 2.32 8 3 C6.39125 3.12375 6.39125 3.12375 4.75 3.25 C0.7261549 4.05476902 -0.48169253 4.87729874 -3 8 C-2.45276317 4.62537285 -1.9451 2.91765 0 0 Z " fill="#C6B683" transform="translate(176,140)"/>
<path d="M0 0 C1.32 0 2.64 0 4 0 C4 2.31 4 4.62 4 7 C3.01 7.495 3.01 7.495 2 8 C1.34 7.67 0.68 7.34 0 7 C0 4.69 0 2.38 0 0 Z " fill="#E7D081" transform="translate(109,131)"/>
<path d="M0 0 C0.66 0.33 1.32 0.66 2 1 C1.401875 1.5775 0.80375 2.155 0.1875 2.75 C-2.97824666 7.45339504 -3.84297482 12.50413038 -5 18 C-5.33 18 -5.66 18 -6 18 C-6.45743356 11.5959301 -5.48834422 7.42348408 -2 2 C-1.34 1.34 -0.68 0.68 0 0 Z " fill="#FBF1C3" transform="translate(124,72)"/>
<path d="M0 0 C2.31 0.33 4.62 0.66 7 1 C6.01 1.495 6.01 1.495 5 2 C4.67 2.99 4.34 3.98 4 5 C1.9375 5.6875 1.9375 5.6875 0 6 C0 4.02 0 2.04 0 0 Z " fill="#A1A0A7" transform="translate(110,105)"/>
<path d="M0 0 C0.99 0.33 1.98 0.66 3 1 C3.33 3.31 3.66 5.62 4 8 C2.68 8 1.36 8 0 8 C0 5.36 0 2.72 0 0 Z " fill="#FCF3CD" transform="translate(136,82)"/>
<path d="M0 0 C0.66 0 1.32 0 2 0 C2 1.32 2 2.64 2 4 C4.31 4.33 6.62 4.66 9 5 C7.375 6.1875 7.375 6.1875 5 7 C1.75 5.625 1.75 5.625 -1 4 C-0.67 2.68 -0.34 1.36 0 0 Z " fill="#FAF4EA" transform="translate(76,144)"/>
<path d="M0 0 C0.66 0 1.32 0 2 0 C2.33 0.99 2.66 1.98 3 3 C3.495 3.45375 3.99 3.9075 4.5 4.375 C6.43309736 6.46918881 6.62452796 8.22150692 7 11 C6.34 11 5.68 11 5 11 C4.731875 10.21625 4.46375 9.4325 4.1875 8.625 C3.15185568 5.71885077 3.15185568 5.71885077 0 4 C0 2.68 0 1.36 0 0 Z " fill="#E2D09C" transform="translate(132,45)"/>
<path d="M0 0 C0.99 0 1.98 0 3 0 C3 2.64 3 5.28 3 8 C2.01 8 1.02 8 0 8 C0 5.36 0 2.72 0 0 Z " fill="#D1AF5D" transform="translate(121,140)"/>
<path d="M0 0 C2.72869407 0.03287583 5.2966618 0.56397771 8 1 C7.67 1.99 7.34 2.98 7 4 C2.545 3.01 2.545 3.01 -2 2 C-1.34 1.34 -0.68 0.68 0 0 Z " fill="#D3B364" transform="translate(92,109)"/>
<path d="M0 0 C-0.66 0 -1.32 0 -2 0 C-2 1.65 -2 3.3 -2 5 C-3.32 5 -4.64 5 -6 5 C-6 3.35 -6 1.7 -6 0 C-3.50907189 -1.24546405 -2.58919267 -0.7767578 0 0 Z " fill="#C3C1C6" transform="translate(168,105)"/>
<path d="M0 0 C1.9375 0.75 1.9375 0.75 4 2 C4.75 4.125 4.75 4.125 5 6 C4.01 6.66 3.02 7.32 2 8 C2 7.34 2 6.68 2 6 C1.34 6 0.68 6 0 6 C0 4.02 0 2.04 0 0 Z " fill="#E9E5E5" transform="translate(170,76)"/>
<path d="M0 0 C2.64 0.33 5.28 0.66 8 1 C7.67 2.32 7.34 3.64 7 5 C3.34683329 3.75023244 2.21934164 3.32901247 0 0 Z " fill="#D4BB75" transform="translate(143,109)"/>
<path d="M0 0 C1.32 0 2.64 0 4 0 C4.33 0.99 4.66 1.98 5 3 C4.67 3.66 4.34 4.32 4 5 C1.525 4.01 1.525 4.01 -1 3 C-0.67 2.01 -0.34 1.02 0 0 Z " fill="#DFC06F" transform="translate(107,98)"/>
<path d="M0 0 C0.33 0 0.66 0 1 0 C0.58846263 4.97093824 0.20399168 9.44508386 -2 14 C-3.32365626 10.02903122 -2.24318252 7.93674465 -1 4 C-0.65864073 2.66869885 -0.32074044 1.33641852 0 0 Z " fill="#D7D6CB" transform="translate(153,83)"/>
<path d="M0 0 C0.66 0 1.32 0 2 0 C2 1.32 2 2.64 2 4 C2.66 4.33 3.32 4.66 4 5 C4 6.32 4 7.64 4 9 C3.67 8.34 3.34 7.68 3 7 C2.34 7 1.68 7 1 7 C0.67 4.69 0.34 2.38 0 0 Z " fill="#EFE1B3" transform="translate(128,87)"/>
<path d="M0 0 C0.66 0.33 1.32 0.66 2 1 C0.35 2.98 -1.3 4.96 -3 7 C-3.99 6.01 -4.98 5.02 -6 4 C-3.94766315 1.7522025 -2.99332739 0.9977758 0 0 Z " fill="#E0D8AC" transform="translate(182,77)"/>
<path d="M0 0 C1.46726798 3.81489674 0.43336419 6.29011622 -1 10 C-1.99 9.01 -2.98 8.02 -4 7 C-2.79618552 4.50638429 -1.54571278 2.31856917 0 0 Z " fill="#FBF2DD" transform="translate(144,66)"/>
<path d="M0 0 C2.4294516 3.6441774 2.16179575 5.71241272 2 10 C1.67 9.34 1.34 8.68 1 8 C0.34 8 -0.32 8 -1 8 C-1.04241723 5.66705225 -1.04092937 3.33297433 -1 1 C-0.67 0.67 -0.34 0.34 0 0 Z " fill="#E8D790" transform="translate(162,70)"/>
<path d="M0 0 C3.83257424 0 4.77421518 0.84947679 8 3 C8.66 3.66 9.32 4.32 10 5 C3.51707705 5.3669579 3.51707705 5.3669579 1.0625 3.625 C0 2 0 2 0 0 Z " fill="#D1C59B" transform="translate(139,105)"/>
<path d="M0 0 C0 0.66 0 1.32 0 2 C-3.3 2 -6.6 2 -10 2 C-6.19832777 -0.53444815 -4.31588991 -1.33941411 0 0 Z " fill="#CDB87A" transform="translate(158,102)"/>
<path d="M0 0 C0.33 0.99 0.66 1.98 1 3 C-0.9375 5.6875 -0.9375 5.6875 -3 8 C-3.66 7.67 -4.32 7.34 -5 7 C-2.25 1.125 -2.25 1.125 0 0 Z " fill="#D7C17C" transform="translate(161,88)"/>
<path d="M0 0 C5.41342681 1.14514798 7.9342948 2.34012809 11 7 C9.66666667 6.33333333 8.33333333 5.66666667 7 5 C5.948125 4.505 4.89625 4.01 3.8125 3.5 C1 2 1 2 0 0 Z " fill="#DED3A9" transform="translate(85,77)"/>
<path d="M0 0 C0.33 1.32 0.66 2.64 1 4 C1.99 4.33 2.98 4.66 4 5 C4.33 5.99 4.66 6.98 5 8 C3.68 8.33 2.36 8.66 1 9 C0.67 6.03 0.34 3.06 0 0 Z " fill="#EADFAE" transform="translate(143,71)"/>
<path d="M0 0 C0.66 0 1.32 0 2 0 C2.33 1.65 2.66 3.3 3 5 C1.35 5 -0.3 5 -2 5 C-1.34 3.35 -0.68 1.7 0 0 Z " fill="#F8F2C6" transform="translate(180,136)"/>
<path d="M0 0 C1.32 0 2.64 0 4 0 C4 2.31 4 4.62 4 7 C1.49962266 4.82575883 0.56371414 3.26954202 0 0 Z " fill="#EED189" transform="translate(96,131)"/>
<path d="M0 0 C0.66 0 1.32 0 2 0 C2.20086443 3.71599191 2.1519437 4.77208445 0 8 C-0.66 8 -1.32 8 -2 8 C-1.34 5.36 -0.68 2.72 0 0 Z " fill="#D0CCC8" transform="translate(156,86)"/>
<path d="M0 0 C0.99 0.33 1.98 0.66 3 1 C2.67 2.98 2.34 4.96 2 7 C1.67 6.01 1.34 5.02 1 4 C0.01 4.33 -0.98 4.66 -2 5 C-2 3.68 -2 2.36 -2 1 C-1.34 0.67 -0.68 0.34 0 0 Z " fill="#B8B6B8" transform="translate(115,75)"/>
<path d="M0 0 C0.66 0.33 1.32 0.66 2 1 C2 3.64 2 6.28 2 9 C-0.475 8.01 -0.475 8.01 -3 7 C-3 6.34 -3 5.68 -3 5 C-2.01 4.67 -1.02 4.34 0 4 C0 2.68 0 1.36 0 0 Z " fill="#E2D9AD" transform="translate(143,57)"/>
<path d="M0 0 C0.66 0.33 1.32 0.66 2 1 C0.68 3.64 -0.64 6.28 -2 9 C-2.66 8.67 -3.32 8.34 -4 8 C-2.87548273 5.0280615 -1.77706209 2.66559313 0 0 Z " fill="#D3C294" transform="translate(144,135)"/>
<path d="M0 0 C0.66 0.99 1.32 1.98 2 3 C-2.43076923 5.09230769 -2.43076923 5.09230769 -5.3125 4.625 C-5.869375 4.41875 -6.42625 4.2125 -7 4 C-4.69 2.68 -2.38 1.36 0 0 Z " fill="#AAA594" transform="translate(150,97)"/>
<path d="M0 0 C1.98 0.99 1.98 0.99 4 2 C4 2.99 4 3.98 4 5 C2.68 5 1.36 5 0 5 C0 3.35 0 1.7 0 0 Z " fill="#C4A159" transform="translate(187,143)"/>
<path d="M0 0 C0.66 0 1.32 0 2 0 C2 1.98 2 3.96 2 6 C1.01 6 0.02 6 -1 6 C-1.042721 4.33388095 -1.04063832 2.66617115 -1 1 C-0.67 0.67 -0.34 0.34 0 0 Z " fill="#C4A853" transform="translate(154,142)"/>
<path d="M0 0 C0.33 1.65 0.66 3.3 1 5 C0.01 5 -0.98 5 -2 5 C-2.66 3.68 -3.32 2.36 -4 1 C-2 0 -2 0 0 0 Z " fill="#F2EAE4" transform="translate(136,119)"/>
<path d="M0 0 C0.66 0.33 1.32 0.66 2 1 C2 1.66 2 2.32 2 3 C1.34 3 0.68 3 0 3 C-0.33 4.98 -0.66 6.96 -1 9 C-1.33 9 -1.66 9 -2 9 C-2.125 5.625 -2.125 5.625 -2 2 C-1.34 1.34 -0.68 0.68 0 0 Z " fill="#DDD09C" transform="translate(136,94)"/>
<path d="M0 0 C1.9451 2.91765 2.45276317 4.62537285 3 8 C1.68 7.34 0.36 6.68 -1 6 C-0.67 4.02 -0.34 2.04 0 0 Z " fill="#CBC5BD" transform="translate(113,87)"/>
<path d="M0 0 C2 1.1875 2 1.1875 4 3 C4.25 5.6875 4.25 5.6875 4 8 C1.10067643 5.60490662 0.49831724 3.68754757 0 0 Z " fill="#EDDF9E" transform="translate(90,80)"/>
<path d="M0 0 C0.66 0 1.32 0 2 0 C3.0625 1.8125 3.0625 1.8125 4 4 C3 7 3 7 1 9 C0.67 6.03 0.34 3.06 0 0 Z " fill="#E8DFBC" transform="translate(105,62)"/>
</svg>
